<?xml version="1.0" standalone="no"?>
<!DOCTYPE svg PUBLIC "-//W3C//DTD SVG 20010904//EN"
 "http://www.w3.org/TR/2001/REC-SVG-20010904/DTD/svg10.dtd">
<svg version="1.0" xmlns="http://www.w3.org/2000/svg"
 width="996.000000pt" height="664.000000pt" viewBox="0 0 996.000000 664.000000"
 preserveAspectRatio="xMidYMid meet">

<g transform="translate(0.000000,664.000000) scale(0.100000,-0.100000)"
fill="#000000" stroke="none">
<path d="M2464 5516 c10 -52 24 -86 35 -86 6 0 15 19 21 43 6 23 13 47 14 52
2 6 8 -6 15 -25 l11 -35 -5 35 c-8 54 -22 58 -35 9 -19 -75 -22 -77 -36 -21
-14 63 -30 84 -20 28z"/>
<path d="M2596 5513 c-12 -66 -17 -77 -27 -62 -7 11 -9 10 -9 -3 0 -10 6 -18
14 -18 8 0 19 23 29 60 8 33 11 60 7 60 -4 0 -11 -17 -14 -37z"/>
<path d="M2651 5488 l0 -58 32 1 c31 2 31 2 4 6 -22 4 -28 9 -25 26 2 13 13
24 28 28 25 7 25 7 -3 8 -36 1 -34 32 3 42 23 7 22 7 -7 6 l-31 -1 -1 -58z"/>
<path d="M2751 5493 l-1 -63 35 0 c40 0 55 21 37 50 -7 12 -7 21 0 28 6 6 7
15 4 21 -12 18 -23 12 -22 -11 1 -37 -37 -30 -45 7 -5 21 -7 12 -8 -32z m54
-16 c23 -17 12 -37 -21 -37 -22 0 -26 11 -15 48 2 6 19 1 36 -11z"/>
<path d="M1627 5533 c-4 -3 -7 -39 -7 -80 l0 -73 71 2 71 2 -6 44 c-3 25 -6
55 -6 67 0 29 -47 56 -61 35 -8 -12 -12 -12 -16 -2 -5 13 -35 17 -46 5z"/>
<path d="M5651 5509 c-15 -44 -15 -44 23 -45 l34 0 -12 35 c-16 46 -31 49 -45
10z m25 -16 c-10 -10 -19 5 -10 18 6 11 8 11 12 0 2 -7 1 -15 -2 -18z"/>
<path d="M5727 5533 c-4 -3 -7 -21 -7 -40 0 -30 3 -33 29 -33 27 0 30 3 29 33
-1 39 -30 62 -51 40z m33 -23 c0 -5 -4 -10 -10 -10 -5 0 -10 5 -10 10 0 6 5
10 10 10 6 0 10 -4 10 -10z m0 -30 c0 -5 -4 -10 -10 -10 -5 0 -10 5 -10 10 0
6 5 10 10 10 6 0 10 -4 10 -10z"/>
<path d="M5812 5528 c-32 -32 2 -87 40 -67 23 12 24 64 2 73 -22 8 -28 8 -42
-6z m46 -31 c4 -20 -25 -34 -40 -19 -15 15 -1 44 19 40 10 -2 19 -11 21 -21z"/>
<path d="M5890 5506 c0 -40 24 -61 53 -45 19 11 24 64 7 74 -6 4 -10 -8 -10
-29 0 -25 -4 -36 -15 -36 -10 0 -15 10 -15 29 0 17 -4 33 -10 36 -6 4 -10 -8
-10 -29z"/>
<path d="M5970 5530 c0 -5 5 -10 10 -10 6 0 10 -13 10 -30 0 -16 5 -30 10 -30
6 0 10 14 10 30 0 17 5 30 10 30 6 0 10 5 10 10 0 6 -13 10 -30 10 -16 0 -30
-4 -30 -10z"/>
<path d="M6082 5503 c-2 -44 10 -57 41 -41 12 6 17 20 16 46 l-2 37 -6 -35
c-9 -51 -38 -53 -44 -3 l-4 38 -1 -42z"/>
<path d="M6163 5524 c-4 -10 1 -22 10 -29 22 -16 22 -25 0 -25 -12 0 -14 -3
-7 -10 13 -13 44 -2 44 15 0 7 -10 20 -22 28 l-23 16 23 0 c13 1 20 5 17 11
-10 16 -35 12 -42 -6z"/>
<path d="M6413 5533 c-20 -7 -15 -29 10 -46 l22 -16 -24 0 c-17 -1 -22 -4 -15
-11 12 -12 44 -3 44 13 0 6 -7 19 -17 29 -15 17 -15 18 0 18 10 0 17 5 17 10
0 10 -16 12 -37 3z"/>
<path d="M6470 5501 c0 -41 23 -62 44 -41 7 7 5 10 -7 10 -9 0 -17 5 -17 10 0
6 6 10 13 10 8 0 7 4 -3 11 -11 8 -12 12 -2 16 19 8 14 23 -8 23 -17 0 -20 -7
-20 -39z"/>
<path d="M6537 5533 c-11 -10 -8 -73 3 -73 6 0 10 8 10 18 0 14 4 12 19 -8
l19 -24 -1 39 c-1 39 -10 55 -33 55 -6 0 -14 -3 -17 -7z m33 -23 c0 -5 -4 -10
-10 -10 -5 0 -10 5 -10 10 0 6 5 10 10 10 6 0 10 -4 10 -10z"/>
<path d="M6604 5524 c3 -9 9 -27 12 -40 9 -35 31 -29 44 12 16 46 5 56 -13 13
l-14 -34 -7 33 c-4 17 -12 32 -18 32 -6 0 -7 -7 -4 -16z"/>
<path d="M6685 5528 c-6 -19 -1 -68 8 -68 4 0 7 18 7 40 0 40 -7 52 -15 28z"/>
<path d="M6732 5528 c-31 -31 3 -90 39 -67 11 7 9 9 -8 9 -18 0 -23 6 -23 25
0 18 5 25 20 25 11 0 20 5 20 10 0 14 -33 13 -48 -2z"/>
<path d="M6800 5497 c0 -36 3 -43 20 -43 11 0 20 4 20 8 0 4 -7 8 -15 8 -8 0
-15 5 -15 10 0 6 8 10 17 10 15 0 14 2 -3 15 -17 13 -17 14 -1 15 24 0 22 20
-3 20 -17 0 -20 -7 -20 -43z"/>
<path d="M7070 5500 c0 -22 2 -40 5 -40 3 0 18 11 32 24 22 21 24 27 14 40 -8
9 -22 16 -32 16 -15 0 -19 -8 -19 -40z m40 10 c0 -5 -4 -10 -10 -10 -5 0 -10
5 -10 10 0 6 5 10 10 10 6 0 10 -4 10 -10z"/>
<path d="M7147 5533 c-11 -10 -8 -71 3 -78 6 -3 10 4 10 17 l0 23 19 -25 19
-24 -1 39 c-1 39 -10 55 -33 55 -6 0 -14 -3 -17 -7z m33 -23 c0 -5 -4 -10 -10
-10 -5 0 -10 5 -10 10 0 6 5 10 10 10 6 0 10 -4 10 -10z"/>
<path d="M7232 5528 c-32 -32 2 -87 40 -67 23 12 24 64 2 73 -22 8 -28 8 -42
-6z m46 -31 c4 -20 -25 -34 -40 -19 -15 15 -1 44 19 40 10 -2 19 -11 21 -21z"/>
<path d="M7310 5500 c0 -38 2 -40 30 -40 24 0 31 5 36 27 8 29 -14 53 -48 53
-14 0 -18 -8 -18 -40z m48 -2 c-5 -32 -28 -35 -28 -4 0 17 5 26 16 26 10 0 14
-7 12 -22z"/>
<path d="M7401 5504 c-1 -29 4 -44 14 -48 30 -11 45 5 44 48 l-2 41 -6 -35
c-4 -22 -12 -35 -21 -35 -9 0 -17 13 -21 35 l-6 35 -2 -41z"/>
<path d="M7492 5528 c-19 -19 -14 -56 9 -69 15 -8 24 -8 32 0 8 8 5 11 -11 11
-17 0 -22 6 -22 25 0 18 5 25 20 25 11 0 20 5 20 10 0 14 -33 13 -48 -2z"/>
<path d="M7550 5530 c0 -5 5 -10 10 -10 6 0 10 -13 10 -30 0 -16 5 -30 10 -30
6 0 10 14 10 30 0 17 5 30 10 30 6 0 10 5 10 10 0 6 -13 10 -30 10 -16 0 -30
-4 -30 -10z"/>
<path d="M7862 5528 c-19 -19 -14 -56 9 -69 15 -8 24 -8 32 0 8 8 5 11 -11 11
-17 0 -22 6 -22 25 0 19 5 25 21 25 11 0 17 5 14 10 -8 14 -28 13 -43 -2z"/>
<path d="M7930 5525 c-15 -18 -6 -61 16 -69 24 -9 54 12 54 37 0 43 -44 63
-70 32z m50 -31 c0 -33 -33 -30 -38 4 -3 17 2 22 17 22 16 0 21 -6 21 -26z"/>
<path d="M8021 5498 c1 -40 2 -41 8 -13 l8 30 13 -27 c21 -43 40 -36 39 15 -2
29 -3 34 -6 15 -5 -35 -16 -36 -31 -3 -18 38 -32 30 -31 -17z"/>
<path d="M8110 5530 c0 -5 4 -10 9 -10 6 0 12 -17 14 -37 l4 -38 1 38 c1 20 7
37 12 37 6 0 10 5 10 10 0 6 -11 10 -25 10 -14 0 -25 -4 -25 -10z"/>
<path d="M8189 5513 c-5 -16 -11 -33 -13 -39 -2 -6 10 -10 30 -10 38 1 38 1
23 45 -13 38 -26 40 -40 4z m25 -8 c3 -8 1 -15 -4 -15 -6 0 -10 7 -10 15 0 8
2 15 4 15 2 0 6 -7 10 -15z"/>
<path d="M8266 5524 c-9 -8 -16 -22 -16 -29 0 -15 27 -45 40 -45 19 0 19 18 0
23 -26 7 -26 37 0 44 11 3 20 9 20 14 0 15 -27 10 -44 -7z"/>
<path d="M8330 5530 c0 -5 4 -10 9 -10 6 0 12 -17 14 -37 l4 -38 1 38 c1 20 7
37 12 37 6 0 10 5 10 10 0 6 -11 10 -25 10 -14 0 -25 -4 -25 -10z"/>
<path d="M8431 5504 c-1 -43 14 -59 44 -48 10 4 14 19 13 48 l-1 41 -4 -38
c-6 -50 -35 -48 -44 3 l-6 35 -2 -41z"/>
<path d="M8513 5524 c-4 -11 2 -23 18 -35 l24 -19 -25 0 c-19 0 -21 -3 -11 -9
17 -11 41 -4 41 12 0 6 -7 19 -17 29 -15 17 -15 18 0 18 10 0 17 5 17 10 0 17
-40 11 -47 -6z"/>
<path d="M5207 5523 c-9 -9 -9 -51 1 -56 4 -3 7 10 7 29 0 19 0 34 -1 34 0 0
-4 -3 -7 -7z"/>
<path d="M5400 5495 c0 -19 4 -35 8 -35 4 0 6 16 4 35 -2 19 -6 35 -8 35 -2 0
-4 -16 -4 -35z"/>
<path d="M5150 5500 c-13 -8 -12 -10 3 -10 9 0 17 5 17 10 0 12 -1 12 -20 0z"/>
<path d="M5252 5482 c-11 -25 -11 -25 4 -10 9 9 15 21 13 27 -2 6 -10 -2 -17
-17z"/>
<path d="M5292 5485 c0 -16 2 -22 5 -12 2 9 2 23 0 30 -3 6 -5 -1 -5 -18z"/>
<path d="M1675 4465 c-50 -18 -81 -53 -96 -108 -22 -83 5 -177 64 -221 23 -17
43 -21 102 -21 59 0 79 4 102 21 49 37 67 80 67 159 0 81 -21 128 -69 157 -43
25 -122 31 -170 13z m105 -75 c42 -22 50 -141 13 -182 -21 -23 -75 -23 -96 0
-36 39 -33 136 4 173 21 21 50 24 79 9z"/>
<path d="M1983 4293 l2 -177 40 -1 40 0 0 122 c0 67 3 119 7 115 3 -4 34 -60
68 -124 l61 -116 59 0 60 1 0 179 0 178 -40 0 -40 0 0 -122 0 -123 -64 120
-64 120 -65 3 -66 3 2 -178z"/>
<path d="M2402 4293 l3 -178 115 0 114 0 4 38 3 37 -70 0 -71 0 0 140 0 140
-50 0 -50 0 2 -177z"/>
<path d="M2693 4293 l2 -177 45 0 45 -1 3 178 2 177 -49 0 -50 0 2 -177z"/>
<path d="M2870 4290 l0 -180 38 3 37 2 5 122 5 123 65 -123 65 -122 60 0 60 0
3 178 2 177 -46 0 -46 0 4 -120 c2 -66 3 -120 2 -120 -2 0 -31 54 -66 120
l-63 120 -62 0 -63 0 0 -180z"/>
<path d="M3290 4292 l0 -179 103 1 102 1 3 38 3 37 -60 0 -61 0 0 35 0 35 55
0 55 0 0 40 0 40 -56 0 c-54 0 -55 0 -52 28 3 26 6 27 61 30 l57 3 0 34 0 35
-105 0 -105 0 0 -178z"/>
<path d="M7289 4236 c-13 -7 -23 -20 -23 -29 1 -9 -2 -14 -7 -11 -10 6 -12
-36 -3 -60 3 -9 10 -13 15 -10 5 3 6 -1 3 -9 -6 -17 34 -59 48 -51 5 3 7 0 6
-7 -2 -6 11 -20 28 -30 l31 -19 48 34 c57 41 85 80 85 122 0 32 -33 84 -52 84
-6 0 -3 -9 7 -20 10 -11 13 -20 7 -20 -7 0 -12 4 -12 9 0 5 -9 13 -21 16 -24
8 -73 -31 -62 -49 3 -6 2 -7 -3 -3 -5 5 -9 12 -9 16 0 11 -27 36 -46 43 -9 4
-27 1 -40 -6z m135 -21 c-4 -8 -11 -15 -16 -15 -6 0 -5 6 2 15 7 8 14 15 16
15 2 0 1 -7 -2 -15z m10 -46 c3 -3 -5 -5 -19 -5 -13 0 -22 3 -19 7 4 8 30 6
38 -2z m74 -34 c-3 -3 -9 2 -12 12 -6 14 -5 15 5 6 7 -7 10 -15 7 -18z m-51
-50 c0 -8 -4 -12 -9 -9 -5 3 -6 10 -3 15 9 13 12 11 12 -6z"/>
<path d="M6802 4183 c-7 -10 -10 -12 -7 -5 11 23 -13 12 -37 -17 -33 -39 -36
-103 -6 -139 11 -15 19 -20 16 -11 -4 9 2 20 13 27 25 16 24 28 -1 35 -26 7
-41 46 -26 69 15 25 53 23 67 -4 l12 -23 10 23 c7 16 18 22 38 20 15 -1 25 -6
23 -10 -3 -5 -9 -6 -14 -3 -4 3 -11 -2 -14 -11 -8 -22 -8 -24 8 -24 8 0 22
-10 30 -21 17 -25 6 -58 -26 -78 -11 -7 -18 -9 -16 -4 2 4 -6 18 -18 29 -19
18 -24 19 -28 7 -8 -21 -7 -30 2 -16 5 9 12 6 21 -10 12 -19 12 -21 0 -12 -8
6 -26 12 -41 14 -41 4 -37 -26 5 -34 62 -12 119 29 123 91 2 25 0 33 -9 27 -7
-4 -7 0 2 10 7 9 9 17 5 17 -5 0 -14 10 -19 23 -6 12 -14 22 -20 21 -5 0 -16
6 -23 13 -19 18 -55 16 -70 -4z m-25 -132 c-7 -2 -15 -9 -19 -15 -8 -11 -9
-10 -13 31 -2 21 -1 21 20 5 14 -10 18 -19 12 -21z"/>
<path d="M7876 4162 c-3 -6 -4 -16 -1 -24 3 -7 -2 -22 -10 -33 -16 -19 -16
-19 -6 2 16 32 13 38 -9 18 -11 -10 -17 -22 -14 -27 3 -4 0 -7 -7 -6 -7 2 -13
-2 -14 -9 0 -6 -4 -15 -9 -20 -5 -5 -6 -3 -2 5 8 14 -12 16 -32 4 -8 -5 -10
-16 -6 -27 5 -12 4 -16 -4 -11 -7 4 -13 -7 -18 -31 -3 -21 -10 -55 -14 -77 -5
-21 -6 -45 -3 -54 4 -10 2 -13 -5 -8 -7 4 -12 2 -12 -3 0 -7 58 -11 173 -11
215 0 209 -4 211 131 1 106 -9 124 -52 92 -15 -11 -37 -23 -50 -27 -12 -4 -22
-11 -22 -15 0 -4 -6 -8 -14 -8 -7 0 -13 5 -13 11 0 30 -4 47 -10 43 -5 -3 -6
15 -4 39 2 25 -1 44 -7 44 -6 0 -17 3 -25 6 -8 3 -18 1 -21 -4z m16 -64 c-7
-7 -12 -8 -12 -2 0 14 12 26 19 19 2 -3 -1 -11 -7 -17z m189 -35 c13 -16 12
-17 -3 -4 -10 7 -18 15 -18 17 0 8 8 3 21 -13z m-74 -38 c0 -8 -4 -12 -9 -9
-5 3 -6 10 -3 15 9 13 12 11 12 -6z m64 -8 c-4 -4 -18 -3 -32 2 -23 9 -22 9 8
8 18 -1 28 -6 24 -10z m-18 -149 c-2 -5 -10 -8 -18 -8 -8 0 -16 3 -18 8 -3 4
5 7 18 7 13 0 21 -3 18 -7z m-276 -4 c-3 -3 -12 -4 -19 -1 -8 3 -5 6 6 6 11 1
17 -2 13 -5z"/>
<path d="M1623 4004 c-38 -19 -58 -62 -49 -108 8 -39 37 -67 103 -96 75 -33
47 -81 -37 -61 -19 5 -43 12 -52 16 -15 6 -18 1 -18 -34 0 -51 17 -61 102 -61
78 0 121 23 138 74 20 60 0 98 -69 135 -73 39 -87 54 -65 72 13 10 24 10 61 0
49 -13 53 -11 71 31 10 25 9 27 -20 37 -45 16 -128 13 -165 -5z"/>
<path d="M1874 4007 c-2 -7 -3 -87 -2 -177 l3 -165 48 -3 47 -3 0 75 0 76 55
0 55 0 0 -75 0 -75 50 0 50 0 0 180 0 180 -50 0 -50 0 0 -65 0 -65 -55 0 -55
0 0 65 0 65 -45 0 c-28 0 -48 -5 -51 -13z"/>
<path d="M2322 4000 c-52 -32 -72 -74 -72 -155 0 -79 19 -127 63 -159 39 -29
149 -34 197 -9 102 52 107 262 8 323 -46 28 -150 28 -196 0z m148 -76 c11 -10
15 -36 15 -85 0 -80 -14 -99 -72 -99 -49 0 -67 35 -64 128 1 46 42 86 79 77
15 -3 34 -13 42 -21z"/>
<path d="M2660 3841 l0 -181 45 0 45 0 0 59 0 58 46 6 c87 9 136 77 114 157
-15 57 -48 73 -157 78 l-93 4 0 -181z m156 74 c8 -31 -10 -55 -42 -55 -21 0
-24 5 -24 40 0 38 2 40 30 40 23 0 31 -5 36 -25z"/>
<path d="M2980 3840 l0 -180 45 0 45 0 0 60 0 60 33 0 c43 0 99 29 114 60 18
35 16 101 -3 129 -25 35 -75 51 -159 51 l-75 0 0 -180z m150 85 c20 -24 -3
-65 -35 -65 -23 0 -25 4 -25 40 0 35 3 40 24 40 13 0 29 -7 36 -15z"/>
<path d="M3290 3839 l0 -180 48 3 47 3 3 178 2 177 -50 0 -50 0 0 -181z"/>
<path d="M3470 3840 l0 -180 40 0 39 0 3 121 3 121 63 -121 63 -121 60 0 59 0
0 180 0 180 -40 0 -40 0 0 -122 0 -123 -64 120 -64 120 -61 3 -61 3 0 -181z"/>
<path d="M3980 4013 c-111 -45 -147 -211 -66 -301 39 -44 73 -55 161 -50 44 2
86 8 93 12 8 5 12 38 12 102 l0 94 -75 0 -75 0 0 -35 c0 -32 2 -35 30 -35 26
0 30 -3 30 -29 0 -51 -71 -49 -106 4 -12 18 -15 39 -12 76 8 80 47 104 138 86
33 -7 36 -5 48 25 8 22 9 35 1 43 -11 11 -155 18 -179 8z"/>
<path d="M5445 3943 c4 -21 11 -58 15 -83 7 -43 7 -43 9 -10 2 58 16 67 34 22
15 -38 17 -39 73 -45 72 -7 97 3 63 27 -13 9 -33 16 -45 16 -13 0 -44 22 -77
55 -66 66 -83 70 -72 18z"/>
<path d="M2273 3415 c0 -22 2 -30 4 -17 2 12 2 30 0 40 -3 9 -5 -1 -4 -23z"/>
<path d="M2363 3415 c0 -22 2 -30 4 -17 2 12 2 30 0 40 -3 9 -5 -1 -4 -23z"/>
<path d="M1615 3420 c-3 -6 1 -7 9 -4 18 7 21 14 7 14 -6 0 -13 -4 -16 -10z"/>
<path d="M1742 3416 c7 -8 15 -12 17 -11 5 6 -10 25 -20 25 -5 0 -4 -6 3 -14z"/>
<path d="M1808 3403 c5 -21 7 -23 10 -9 2 10 0 22 -6 28 -6 6 -7 0 -4 -19z"/>
<path d="M1959 3418 c11 -15 11 -21 0 -35 -12 -17 -12 -17 6 0 19 17 19 17 0
35 -18 16 -18 16 -6 0z"/>
<path d="M1995 3419 c-4 -6 1 -17 11 -24 18 -14 18 -14 0 -15 -11 0 -17 -3
-13 -6 3 -4 14 -4 23 0 16 6 16 8 0 25 -13 15 -14 20 -4 24 9 4 9 6 1 6 -6 1
-15 -4 -18 -10z"/>
<path d="M2043 3406 c1 -17 9 -31 17 -33 10 -3 11 -2 4 4 -7 4 -14 19 -17 33
-4 22 -5 21 -4 -4z"/>
<path d="M2138 3403 c5 -21 7 -23 10 -9 2 10 0 22 -6 28 -6 6 -7 0 -4 -19z"/>
<path d="M2166 3423 c7 -4 14 -17 17 -28 5 -16 5 -15 4 4 -1 14 -9 26 -17 28
-10 3 -11 2 -4 -4z"/>
<path d="M2234 3415 c-8 -20 2 -45 18 -44 10 0 10 2 1 6 -7 2 -13 13 -13 23 0
10 6 21 13 23 9 4 9 6 -1 6 -7 1 -15 -6 -18 -14z"/>
<path d="M2306 3421 c-3 -5 2 -8 12 -7 9 0 17 -6 17 -14 0 -9 -8 -14 -19 -13
-13 1 -15 -2 -7 -10 8 -8 16 -7 28 5 13 14 14 20 3 32 -14 18 -26 20 -34 7z"/>
<path d="M2396 3421 c-3 -5 2 -8 12 -7 9 0 17 -6 17 -14 0 -9 -8 -14 -19 -13
-13 1 -15 -2 -7 -10 8 -8 16 -7 28 5 13 14 14 20 3 32 -14 18 -26 20 -34 7z"/>
<path d="M2526 3421 c-3 -5 1 -15 10 -22 14 -12 14 -14 -3 -20 -16 -7 -16 -8
-1 -8 24 -1 31 14 12 29 -12 11 -12 15 -2 21 9 6 9 9 1 9 -6 0 -14 -4 -17 -9z"/>
<path d="M2600 3406 c0 -14 4 -27 8 -30 5 -3 6 8 4 25 -5 35 -12 38 -12 5z"/>
<path d="M2678 3423 c7 -3 16 -2 19 1 4 3 -2 6 -13 5 -11 0 -14 -3 -6 -6z"/>
<path d="M2752 3416 c7 -8 15 -12 17 -11 5 6 -10 25 -20 25 -5 0 -4 -6 3 -14z"/>
<path d="M2786 3417 c3 -10 9 -15 12 -12 3 3 0 11 -7 18 -10 9 -11 8 -5 -6z"/>
<path d="M2824 3416 c-9 -23 3 -46 23 -45 17 1 17 2 1 6 -10 2 -18 13 -18 24
0 20 15 26 23 9 3 -6 4 -5 3 2 -4 19 -25 21 -32 4z"/>
<path d="M2880 3406 c0 -14 3 -27 8 -29 4 -3 7 8 7 24 0 16 -3 29 -7 29 -5 0
-8 -11 -8 -24z"/>
<path d="M2974 3415 c-8 -20 2 -45 18 -44 10 0 10 2 1 6 -7 2 -13 13 -13 23 0
10 6 21 13 23 9 4 9 6 -1 6 -7 1 -15 -6 -18 -14z"/>
<path d="M3024 3415 c-9 -23 4 -47 23 -43 10 2 19 13 19 26 1 19 1 19 -3 2 -2
-11 -11 -20 -19 -20 -17 0 -19 36 -1 43 9 4 9 6 -1 6 -7 1 -15 -6 -18 -14z"/>
<path d="M3118 3403 c5 -21 7 -23 10 -9 2 10 0 22 -6 28 -6 6 -7 0 -4 -19z"/>
<path d="M3155 3419 c-11 -16 -1 -19 13 -3 7 8 8 14 3 14 -5 0 -13 -5 -16 -11z"/>
<path d="M3204 3416 c-9 -23 3 -46 23 -45 17 1 17 2 1 6 -10 2 -18 13 -18 24
0 20 15 26 23 9 3 -6 4 -5 3 2 -4 19 -25 21 -32 4z"/>
<path d="M3265 3420 c-3 -6 1 -7 9 -4 18 7 21 14 7 14 -6 0 -13 -4 -16 -10z"/>
<path d="M3310 3406 c0 -14 4 -27 8 -30 5 -3 6 8 4 25 -5 35 -12 38 -12 5z"/>
<path d="M3350 3415 c-10 -12 -10 -18 0 -30 7 -8 17 -15 23 -15 6 0 3 6 -6 13
-12 8 -14 16 -7 27 9 13 11 13 21 0 9 -12 10 -12 7 -1 -6 21 -23 24 -38 6z"/>
<path d="M3596 3423 c7 -4 14 -19 17 -33 4 -22 5 -21 4 4 -1 17 -9 31 -17 33
-10 3 -11 2 -4 -4z"/>
<path d="M3639 3413 c-13 -16 -12 -17 4 -4 16 13 21 21 13 21 -2 0 -10 -8 -17
-17z"/>
<path d="M3821 3414 c0 -11 3 -14 6 -6 3 7 2 16 -1 19 -3 4 -6 -2 -5 -13z"/>
<path d="M3874 3415 c-8 -20 2 -45 18 -44 10 0 10 2 1 6 -7 2 -13 13 -13 23 0
10 6 21 13 23 9 4 9 6 -1 6 -7 1 -15 -6 -18 -14z"/>
<path d="M4014 3419 c-3 -6 -1 -16 5 -22 9 -9 11 -8 6 6 -8 19 10 24 18 5 3
-8 6 -6 6 5 1 19 -24 23 -35 6z"/>
<path d="M4122 3416 c7 -8 15 -12 17 -11 5 6 -10 25 -20 25 -5 0 -4 -6 3 -14z"/>
<path d="M4210 3406 c0 -14 3 -27 8 -29 4 -3 7 8 7 24 0 16 -3 29 -7 29 -5 0
-8 -11 -8 -24z"/>
<path d="M1672 3400 c0 -14 2 -19 5 -12 2 6 2 18 0 25 -3 6 -5 1 -5 -13z"/>
<path d="M1902 3400 c0 -14 2 -19 5 -12 2 6 2 18 0 25 -3 6 -5 1 -5 -13z"/>
<path d="M2082 3400 c0 -14 2 -19 5 -12 2 6 2 18 0 25 -3 6 -5 1 -5 -13z"/>
<path d="M2452 3400 c0 -14 2 -19 5 -12 2 6 2 18 0 25 -3 6 -5 1 -5 -13z"/>
<path d="M2572 3400 c0 -14 2 -19 5 -12 2 6 2 18 0 25 -3 6 -5 1 -5 -13z"/>
<path d="M2722 3400 c0 -14 2 -19 5 -12 2 6 2 18 0 25 -3 6 -5 1 -5 -13z"/>
<path d="M3443 3401 c1 -14 9 -26 17 -28 10 -3 11 -2 4 4 -7 4 -14 17 -17 28
-5 16 -5 15 -4 -4z"/>
<path d="M3482 3400 c0 -14 2 -19 5 -12 2 6 2 18 0 25 -3 6 -5 1 -5 -13z"/>
<path d="M3702 3400 c0 -14 2 -19 5 -12 2 6 2 18 0 25 -3 6 -5 1 -5 -13z"/>
<path d="M3732 3395 c0 -16 2 -22 5 -12 2 9 2 23 0 30 -3 6 -5 -1 -5 -18z"/>
<path d="M3792 3400 c0 -14 2 -19 5 -12 2 6 2 18 0 25 -3 6 -5 1 -5 -13z"/>
<path d="M3922 3400 c0 -14 2 -19 5 -12 2 6 2 18 0 25 -3 6 -5 1 -5 -13z"/>
<path d="M4182 3400 c0 -14 2 -19 5 -12 2 6 2 18 0 25 -3 6 -5 1 -5 -13z"/>
<path d="M5368 3387 c-24 -18 -50 -46 -58 -64 -15 -31 -15 -31 -103 -35 -83
-3 -90 -5 -113 -31 l-24 -28 0 -310 c0 -217 3 -309 11 -309 6 0 24 8 40 17
l29 17 1 141 c1 77 5 205 9 285 l6 145 2 -127 2 -128 70 0 c39 0 71 3 71 8 1
4 3 17 4 30 3 26 12 38 22 29 3 -4 1 -19 -6 -33 -17 -38 -3 -44 22 -9 12 17
34 42 49 57 32 30 36 48 10 48 -20 0 -52 31 -71 67 -6 12 -11 49 -11 83 0 53
2 61 16 56 9 -3 31 -6 51 -6 24 0 43 -8 62 -28 27 -27 28 -27 43 -7 16 19 17
19 24 2 4 -11 0 -33 -9 -53 -11 -23 -15 -47 -11 -77 7 -48 -15 -113 -40 -123
-26 -10 -7 -24 30 -24 35 0 82 34 97 70 10 26 45 -26 68 -103 l22 -72 13 30
c7 17 13 36 14 43 0 6 4 12 9 12 4 0 7 12 5 28 -4 26 -3 26 4 2 4 -14 16 -26
25 -28 14 -3 16 2 11 27 -9 42 18 52 52 21 26 -25 33 -75 12 -83 -9 -3 -10 -8
-2 -16 13 -14 82 12 91 34 4 12 25 15 95 15 83 0 92 2 109 24 11 14 34 26 59
30 22 3 40 11 40 17 0 5 -4 8 -9 5 -12 -8 -61 43 -77 81 -8 18 -14 51 -14 73
0 41 0 41 22 26 12 -9 32 -16 43 -16 11 -1 37 -7 58 -14 36 -13 37 -13 43 11
10 37 29 21 27 -23 -2 -21 2 -55 9 -74 7 -19 11 -39 10 -43 -1 -5 1 -6 6 -3 5
3 16 -4 25 -14 22 -26 63 -35 93 -21 15 6 24 7 24 1 0 -6 -6 -10 -12 -10 -9 0
-8 -4 2 -10 11 -8 8 -9 -13 -4 -27 6 -28 6 -15 -15 l13 -21 812 0 813 0 0
-395 0 -396 -21 12 c-12 6 -44 9 -77 5 -32 -3 -64 -5 -72 -4 -131 6 -148 3
-181 -27 -38 -36 -59 -82 -59 -130 0 -52 17 -42 22 13 6 60 30 95 85 122 31
16 51 19 77 14 41 -7 42 -10 20 -35 -9 -10 -22 -35 -30 -56 -15 -44 -19 -203
-4 -203 6 0 10 35 10 85 0 90 13 138 47 167 19 17 20 17 41 -5 26 -27 42 -69
42 -108 0 -17 4 -28 8 -25 15 9 -4 105 -26 136 -12 16 -22 31 -22 34 0 15 71
16 103 2 l37 -15 0 -64 0 -65 38 13 37 13 3 592 2 591 -29 30 c-29 29 -31 29
-140 29 -62 0 -111 4 -111 9 0 5 -6 11 -12 14 -7 2 -6 3 3 2 15 -2 28 35 29
83 0 9 -35 12 -142 12 l-143 0 120 -56 c66 -30 122 -57 124 -60 2 -2 -311 -4
-697 -4 -598 0 -702 2 -702 14 0 8 -14 26 -31 40 -24 21 -41 26 -78 26 -25 -1
-65 2 -88 6 -35 5 -51 2 -85 -19 -24 -14 -52 -34 -62 -46 -18 -20 -28 -21
-262 -21 l-243 0 -33 41 c-62 78 -78 89 -124 89 -32 0 -53 -8 -86 -33z m2392
9 c0 -2 -11 -6 -25 -8 -14 -3 -25 -1 -25 3 0 5 11 9 25 9 14 0 25 -2 25 -4z
m127 -2 c-3 -3 -12 -4 -19 -1 -8 3 -5 6 6 6 11 1 17 -2 13 -5z m-12 -34 c3 -5
1 -10 -4 -10 -6 0 -11 5 -11 10 0 6 2 10 4 10 3 0 8 -4 11 -10z m-2565 -204
c0 -12 -5 -7 -19 24 -11 24 -11 24 3 6 9 -11 16 -24 16 -30z m356 1 c1 -30 -1
-36 -6 -22 -11 26 -12 65 -2 65 4 0 8 -19 8 -43z m62 36 c-10 -2 -26 -2 -35 0
-10 3 -2 5 17 5 19 0 27 -2 18 -5z m100 0 c-10 -2 -28 -2 -40 0 -13 2 -5 4 17
4 22 1 32 -1 23 -4z m215 0 c-24 -2 -62 -2 -85 0 -24 2 -5 4 42 4 47 0 66 -2
43 -4z m64 -25 c-3 -7 -5 -2 -5 12 0 14 2 19 5 13 2 -7 2 -19 0 -25z m348 -15
c-6 -41 -4 -49 17 -65 12 -9 18 -18 11 -18 -26 0 -45 33 -39 69 3 20 6 42 6
49 0 6 3 12 6 12 4 0 3 -21 -1 -47z m1188 40 c-200 -2 -526 -2 -725 0 -200 1
-37 2 362 2 399 0 562 -1 363 -2z m-2308 -89 c18 -45 20 -68 2 -34 -15 28 -27
70 -21 70 2 0 11 -16 19 -36z m531 8 c10 -6 35 -67 33 -81 0 -3 -9 13 -20 37
-16 37 -22 43 -41 37 -18 -5 -20 -4 -8 4 18 13 22 13 36 3z m-162 -10 c3 7 2
0 -1 -16 -4 -20 -3 -27 6 -22 6 4 11 5 11 2 0 -3 -4 -7 -10 -11 -5 -3 -17 9
-26 27 -14 28 -15 31 -2 20 13 -10 17 -10 22 0z m101 -2 c3 -5 1 -10 -4 -10
-6 0 -11 5 -11 10 0 6 2 10 4 10 3 0 8 -4 11 -10z m319 -6 c3 -8 2 -12 -4 -9
-6 3 -10 10 -10 16 0 14 7 11 14 -7z m373 10 c-3 -3 -12 -4 -19 -1 -8 3 -5 6
6 6 11 1 17 -2 13 -5z m1580 -46 c-2 -13 -4 -5 -4 17 -1 22 1 32 4 23 2 -10 2
-28 0 -40z m-2303 15 c-10 -40 -15 -42 -12 -5 1 18 6 32 10 32 5 0 5 -12 2
-27z m146 -3 c0 -5 -5 -10 -11 -10 -5 0 -7 5 -4 10 3 6 8 10 11 10 2 0 4 -4 4
-10z m-1 -90 c0 -10 -3 -8 -9 5 -12 27 -12 43 0 25 5 -8 9 -22 9 -30z"/>
<path d="M1710 3399 c0 -5 5 -7 10 -4 6 3 10 8 10 11 0 2 -4 4 -10 4 -5 0 -10
-5 -10 -11z"/>
<path d="M4097 3403 c-9 -8 12 -33 27 -33 6 0 3 5 -7 11 -9 6 -15 14 -12 20 7
10 2 12 -8 2z"/>
<path d="M2660 3391 c0 -6 4 -13 10 -16 6 -3 7 1 4 9 -7 18 -14 21 -14 7z"/>
<path d="M3174 3392 c3 -6 -2 -13 -11 -15 -16 -4 -16 -5 -1 -6 21 -1 32 15 17
25 -7 4 -9 3 -5 -4z"/>
<path d="M3844 3392 c3 -6 -2 -13 -11 -15 -16 -4 -16 -5 -1 -6 21 -1 32 15 17
25 -7 4 -9 3 -5 -4z"/>
<path d="M1618 3378 c5 -5 16 -8 23 -6 8 3 3 7 -10 11 -17 4 -21 3 -13 -5z"/>
<path d="M3267 3379 c7 -7 15 -10 18 -7 3 3 -2 9 -12 12 -14 6 -15 5 -6 -5z"/>
<path d="M1568 3373 c7 -3 16 -2 19 1 4 3 -2 6 -13 5 -11 0 -14 -3 -6 -6z"/>
<path d="M4043 3365 c0 -8 4 -12 9 -9 5 3 6 10 3 15 -9 13 -12 11 -12 -6z"/>
<path d="M2313 3285 c0 -22 2 -30 4 -17 2 12 2 30 0 40 -3 9 -5 -1 -4 -23z"/>
<path d="M3059 3313 c-4 -42 -3 -63 3 -63 4 0 8 16 8 35 0 19 -2 35 -5 35 -3
0 -5 -3 -6 -7z"/>
<path d="M3413 3285 c0 -22 2 -30 4 -17 2 12 2 30 0 40 -3 9 -5 -1 -4 -23z"/>
<path d="M3493 3301 c0 -11 5 -18 9 -15 4 3 5 11 1 19 -7 21 -12 19 -10 -4z"/>
<path d="M2365 3300 c-3 -5 -1 -10 4 -10 6 0 11 5 11 10 0 6 -2 10 -4 10 -3 0
-8 -4 -11 -10z"/>
<path d="M3810 3281 c0 -17 4 -32 8 -35 4 -2 6 11 4 30 -5 42 -12 45 -12 5z"/>
<path d="M1603 3284 c-3 -8 0 -21 7 -27 10 -9 11 -9 6 1 -5 8 0 12 13 12 23 0
28 15 9 26 -7 4 -8 3 -4 -4 4 -7 1 -12 -9 -12 -9 0 -13 5 -10 10 3 6 4 10 0
10 -3 0 -8 -7 -12 -16z"/>
<path d="M1663 3284 c-3 -9 2 -23 13 -32 17 -16 17 -16 5 0 -7 10 -11 25 -7
33 3 8 3 15 0 15 -2 0 -7 -7 -11 -16z"/>
<path d="M1702 3275 c0 -16 2 -22 5 -12 2 9 2 23 0 30 -3 6 -5 -1 -5 -18z"/>
<path d="M1824 3285 c-3 -8 -4 -20 -2 -27 3 -7 7 -1 10 15 6 29 1 36 -8 12z"/>
<path d="M1856 3285 c4 -8 0 -23 -7 -33 -13 -15 -12 -16 4 -3 19 15 22 36 7
46 -6 3 -7 -1 -4 -10z"/>
<path d="M1917 3293 c-4 -3 -7 -16 -7 -27 0 -12 3 -16 8 -10 4 6 14 14 22 17
12 4 11 6 -3 6 -10 1 -15 6 -12 11 7 11 2 13 -8 3z"/>
<path d="M2110 3275 c0 -14 2 -25 4 -25 2 0 6 11 8 25 3 14 1 25 -3 25 -5 0
-9 -11 -9 -25z"/>
<path d="M2148 3273 c5 -21 7 -23 10 -9 2 10 0 22 -6 28 -6 6 -7 0 -4 -19z"/>
<path d="M2214 3285 c-3 -8 -4 -20 -2 -27 3 -7 7 -1 10 15 6 29 1 36 -8 12z"/>
<path d="M2246 3285 c4 -8 0 -23 -7 -33 -13 -15 -12 -16 4 -3 19 15 22 36 7
46 -6 3 -7 -1 -4 -10z"/>
<path d="M2273 3284 c-3 -9 2 -23 13 -32 17 -16 17 -16 5 0 -7 10 -11 25 -7
33 3 8 3 15 0 15 -2 0 -7 -7 -11 -16z"/>
<path d="M2403 3284 c-3 -9 2 -23 13 -32 17 -16 17 -16 5 1 -12 15 -11 17 8
17 23 0 28 14 9 26 -7 4 -8 3 -4 -4 4 -7 1 -12 -9 -12 -9 0 -13 5 -10 10 3 6
4 10 0 10 -3 0 -8 -7 -12 -16z"/>
<path d="M2465 3289 c-4 -6 -5 -12 -2 -15 2 -3 7 2 10 11 7 17 1 20 -8 4z"/>
<path d="M2498 3273 c5 -21 7 -23 10 -9 2 10 0 22 -6 28 -6 6 -7 0 -4 -19z"/>
<path d="M2563 3260 c0 -25 2 -35 4 -22 2 12 2 32 0 45 -2 12 -4 2 -4 -23z"/>
<path d="M2598 3273 c5 -21 7 -23 10 -9 2 10 0 22 -6 28 -6 6 -7 0 -4 -19z"/>
<path d="M2692 3275 c0 -16 2 -22 5 -12 2 9 2 23 0 30 -3 6 -5 -1 -5 -18z"/>
<path d="M2762 3275 c0 -16 2 -22 5 -12 2 9 2 23 0 30 -3 6 -5 -1 -5 -18z"/>
<path d="M2815 3290 c3 -5 8 -10 11 -10 2 0 4 5 4 10 0 6 -5 10 -11 10 -5 0
-7 -4 -4 -10z"/>
<path d="M2854 3285 c-3 -8 -4 -20 -2 -27 3 -7 7 -1 10 15 6 29 1 36 -8 12z"/>
<path d="M2902 3275 c0 -16 2 -22 5 -12 2 9 2 23 0 30 -3 6 -5 -1 -5 -18z"/>
<path d="M2930 3289 c0 -5 5 -7 10 -4 6 3 10 8 10 11 0 2 -4 4 -10 4 -5 0 -10
-5 -10 -11z"/>
<path d="M2992 3275 c0 -16 2 -22 5 -12 2 9 2 23 0 30 -3 6 -5 -1 -5 -18z"/>
<path d="M3024 3285 c-3 -8 -4 -20 -2 -27 3 -7 7 -1 10 15 6 29 1 36 -8 12z"/>
<path d="M3152 3275 c0 -16 2 -22 5 -12 2 9 2 23 0 30 -3 6 -5 -1 -5 -18z"/>
<path d="M3188 3273 c5 -21 7 -23 10 -9 2 10 0 22 -6 28 -6 6 -7 0 -4 -19z"/>
<path d="M3282 3275 c0 -16 2 -22 5 -12 2 9 2 23 0 30 -3 6 -5 -1 -5 -18z"/>
<path d="M3464 3274 c0 -13 4 -24 8 -24 4 0 8 9 8 19 0 11 -4 22 -8 25 -4 2
-8 -6 -8 -20z"/>
<path d="M3525 3290 c3 -5 8 -10 11 -10 2 0 4 5 4 10 0 6 -5 10 -11 10 -5 0
-7 -4 -4 -10z"/>
<path d="M3596 3285 c4 -8 0 -23 -7 -33 -13 -15 -12 -16 4 -3 19 15 22 36 7
46 -6 3 -7 -1 -4 -10z"/>
<path d="M3694 3292 c5 -8 0 -12 -13 -12 -12 0 -21 -4 -21 -8 0 -11 22 -32 34
-32 5 0 1 7 -10 15 -19 14 -18 14 4 15 24 0 29 14 10 26 -7 4 -8 3 -4 -4z"/>
<path d="M3753 3285 c-7 -21 -2 -24 22 -14 l20 8 -20 1 -20 1 20 9 c18 8 18 9
2 9 -10 1 -20 -6 -24 -14z"/>
<path d="M3944 3285 c-3 -8 -4 -20 -2 -27 3 -7 7 -1 10 15 6 29 1 36 -8 12z"/>
<path d="M3976 3285 c4 -8 0 -23 -7 -33 -13 -15 -12 -16 4 -3 19 15 22 36 7
46 -6 3 -7 -1 -4 -10z"/>
<path d="M4034 3285 c-3 -8 -4 -20 -2 -27 3 -7 7 -1 10 15 6 29 1 36 -8 12z"/>
<path d="M4067 3279 c4 -13 8 -18 11 -10 2 7 -1 18 -6 23 -8 8 -9 4 -5 -13z"/>
<path d="M4147 3294 c-4 -4 -7 -17 -6 -28 0 -12 3 -15 6 -8 2 6 11 12 20 12 8
0 13 5 11 12 -5 14 -22 21 -31 12z"/>
<path d="M1550 3288 c0 -2 9 -11 20 -21 11 -9 20 -13 20 -7 0 5 -9 14 -20 20
-11 6 -20 9 -20 8z"/>
<path d="M1972 3270 c0 -14 2 -19 5 -12 2 6 2 18 0 25 -3 6 -5 1 -5 -13z"/>
<path d="M3122 3270 c0 -14 2 -19 5 -12 2 6 2 18 0 25 -3 6 -5 1 -5 -13z"/>
<path d="M3622 3270 c0 -14 2 -19 5 -12 2 6 2 18 0 25 -3 6 -5 1 -5 -13z"/>
<path d="M1750 3273 c0 -6 8 -17 18 -24 16 -13 16 -13 2 6 -8 11 -16 22 -17
24 -2 2 -3 0 -3 -6z"/>
<path d="M2620 3273 c0 -6 8 -17 18 -24 16 -13 16 -13 2 6 -8 11 -16 22 -17
24 -2 2 -3 0 -3 -6z"/>
<path d="M3080 3271 c0 -6 4 -13 10 -16 6 -3 7 1 4 9 -7 18 -14 21 -14 7z"/>
<path d="M3870 3273 c0 -6 8 -17 18 -24 16 -13 16 -13 2 6 -8 11 -16 22 -17
24 -2 2 -3 0 -3 -6z"/>
<path d="M3430 3261 c0 -6 4 -13 10 -16 6 -3 7 1 4 9 -7 18 -14 21 -14 7z"/>
<path d="M3526 3253 c-6 -14 -5 -15 5 -6 7 7 10 15 7 18 -3 3 -9 -2 -12 -12z"/>
<path d="M1983 3155 c0 -22 2 -30 4 -17 2 12 2 30 0 40 -3 9 -5 -1 -4 -23z"/>
<path d="M2789 3183 c-4 -42 -3 -63 3 -63 4 0 8 16 8 35 0 19 -2 35 -5 35 -3
0 -5 -3 -6 -7z"/>
<path d="M1790 3176 c0 -2 8 -10 18 -17 15 -13 16 -12 3 4 -13 16 -21 21 -21
13z"/>
<path d="M2350 3156 c0 -14 3 -27 8 -29 4 -3 7 8 7 24 0 16 -3 29 -7 29 -5 0
-8 -11 -8 -24z"/>
<path d="M2597 3165 c3 -8 9 -12 14 -9 12 7 11 11 -5 17 -10 4 -13 1 -9 -8z"/>
<path d="M3129 3148 c4 -28 6 -29 9 -9 2 13 0 27 -5 32 -6 6 -7 -3 -4 -23z"/>
<path d="M3320 3176 c0 -2 8 -10 18 -17 15 -13 16 -12 3 4 -13 16 -21 21 -21
13z"/>
<path d="M1592 3145 c0 -16 2 -22 5 -12 2 9 2 23 0 30 -3 6 -5 -1 -5 -18z"/>
<path d="M1711 3154 c0 -11 3 -14 6 -6 3 7 2 16 -1 19 -3 4 -6 -2 -5 -13z"/>
<path d="M1772 3145 c0 -16 2 -22 5 -12 2 9 2 23 0 30 -3 6 -5 -1 -5 -18z"/>
<path d="M1952 3145 c0 -16 2 -22 5 -12 2 9 2 23 0 30 -3 6 -5 -1 -5 -18z"/>
<path d="M2030 3151 c0 -11 4 -22 9 -25 4 -3 6 6 3 19 -5 30 -12 33 -12 6z"/>
<path d="M2066 3139 c3 -44 14 -49 14 -6 0 21 -4 37 -8 37 -5 0 -7 -14 -6 -31z"/>
<path d="M2192 3145 c0 -16 2 -22 5 -12 2 9 2 23 0 30 -3 6 -5 -1 -5 -18z"/>
<path d="M2446 3153 c-6 -14 -5 -15 5 -6 7 7 10 15 7 18 -3 3 -9 -2 -12 -12z"/>
<path d="M2542 3145 c0 -16 2 -22 5 -12 2 9 2 23 0 30 -3 6 -5 -1 -5 -18z"/>
<path d="M2642 3145 c0 -16 2 -22 5 -12 2 9 2 23 0 30 -3 6 -5 -1 -5 -18z"/>
<path d="M2750 3151 c0 -11 4 -22 9 -25 4 -3 6 6 3 19 -5 30 -12 33 -12 6z"/>
<path d="M2882 3145 c0 -16 2 -22 5 -12 2 9 2 23 0 30 -3 6 -5 -1 -5 -18z"/>
<path d="M2942 3145 c0 -16 2 -22 5 -12 2 9 2 23 0 30 -3 6 -5 -1 -5 -18z"/>
<path d="M2972 3145 c0 -16 2 -22 5 -12 2 9 2 23 0 30 -3 6 -5 -1 -5 -18z"/>
<path d="M3008 3143 c5 -21 7 -23 10 -9 2 10 0 22 -6 28 -6 6 -7 0 -4 -19z"/>
<path d="M3062 3145 c0 -16 2 -22 5 -12 2 9 2 23 0 30 -3 6 -5 -1 -5 -18z"/>
<path d="M3095 3160 c3 -5 8 -10 11 -10 2 0 4 5 4 10 0 6 -5 10 -11 10 -5 0
-7 -4 -4 -10z"/>
<path d="M3215 3159 c-4 -6 -5 -12 -2 -15 2 -3 7 2 10 11 7 17 1 20 -8 4z"/>
<path d="M3240 3151 c0 -11 4 -22 9 -25 4 -3 6 6 3 19 -5 30 -12 33 -12 6z"/>
<path d="M3271 3154 c0 -11 3 -14 6 -6 3 7 2 16 -1 19 -3 4 -6 -2 -5 -13z"/>
<path d="M3302 3145 c0 -16 2 -22 5 -12 2 9 2 23 0 30 -3 6 -5 -1 -5 -18z"/>
<path d="M3362 3145 c0 -16 2 -22 5 -12 2 9 2 23 0 30 -3 6 -5 -1 -5 -18z"/>
<path d="M3422 3145 c0 -16 2 -22 5 -12 2 9 2 23 0 30 -3 6 -5 -1 -5 -18z"/>
<path d="M3452 3145 c0 -16 2 -22 5 -12 2 9 2 23 0 30 -3 6 -5 -1 -5 -18z"/>
<path d="M3522 3140 c0 -14 2 -19 5 -12 2 6 2 18 0 25 -3 6 -5 1 -5 -13z"/>
<path d="M1650 3135 c0 -8 4 -15 10 -15 5 0 7 7 4 15 -4 8 -8 15 -10 15 -2 0
-4 -7 -4 -15z"/>
<path d="M1681 3134 c0 -11 3 -14 6 -6 3 7 2 16 -1 19 -3 4 -6 -2 -5 -13z"/>
<path d="M1837 3143 c-10 -9 -9 -23 1 -23 5 0 9 7 9 15 0 17 -1 18 -10 8z"/>
<path d="M2165 3139 c-4 -6 -5 -12 -2 -15 2 -3 7 2 10 11 7 17 1 20 -8 4z"/>
<path d="M2695 3139 c-4 -6 -5 -12 -2 -15 2 -3 7 2 10 11 7 17 1 20 -8 4z"/>
<path d="M2721 3134 c0 -11 3 -14 6 -6 3 7 2 16 -1 19 -3 4 -6 -2 -5 -13z"/>
<path d="M3031 3134 c0 -11 3 -14 6 -6 3 7 2 16 -1 19 -3 4 -6 -2 -5 -13z"/>
<path d="M3190 3141 c0 -6 4 -13 10 -16 6 -3 7 1 4 9 -7 18 -14 21 -14 7z"/>
<path d="M1658 2829 c13 -5 21 -13 17 -19 -4 -6 1 -7 10 -3 13 5 14 7 3 14
-21 14 380 11 405 -3 20 -10 21 -10 8 5 -12 15 -40 17 -240 16 -149 0 -218 -3
-203 -10z"/>
<path d="M2117 2833 c24 -9 -5 -45 -30 -38 -15 4 -18 3 -9 -3 11 -7 10 -11 -4
-16 -10 -4 -24 0 -34 9 -12 11 -20 13 -25 5 -3 -5 -12 -7 -18 -3 -6 4 -23 8
-37 9 -14 1 -19 0 -12 -3 10 -4 9 -9 -5 -19 -14 -12 -11 -12 14 0 18 9 34 12
38 7 3 -5 -3 -12 -12 -14 -14 -4 -13 -5 5 -6 12 0 22 -6 22 -12 0 -6 6 -4 14
4 8 8 28 13 45 12 16 -1 28 2 25 7 -3 4 0 8 5 8 10 0 15 -12 13 -30 0 -3 11
-6 26 -7 l27 -2 -25 10 -25 10 25 20 c17 13 19 17 6 13 -16 -6 -17 -4 -7 13 8
17 7 22 -5 27 -19 7 -34 7 -17 -1z m-95 -65 c-7 -7 -12 -8 -12 -2 0 14 12 26
19 19 2 -3 -1 -11 -7 -17z"/>
<path d="M1579 2803 c-12 -16 -12 -17 2 -6 12 10 18 10 29 0 12 -10 12 -9 1 6
-7 9 -15 17 -16 17 -1 0 -9 -8 -16 -17z"/>
<path d="M2175 2796 c15 -26 16 -28 2 -23 -9 3 -19 1 -23 -5 -4 -6 -3 -8 3 -5
6 4 14 -1 17 -10 6 -15 8 -15 16 -3 7 11 10 8 10 -12 0 -22 -4 -26 -17 -22
-14 5 -15 4 -4 -4 8 -6 9 -12 3 -16 -6 -3 -13 -2 -17 4 -8 13 -25 3 -25 -13 0
-7 4 -6 10 3 7 12 10 12 10 1 0 -8 6 -11 16 -7 12 5 15 2 10 -9 -3 -10 -2 -13
5 -10 6 4 8 13 5 21 -3 7 -1 16 4 19 19 12 10 64 -16 92 l-26 28 17 -29z"/>
<path d="M1650 2786 c0 -4 11 -6 25 -4 14 3 25 1 25 -3 0 -5 -5 -9 -12 -9 -6
0 -9 -2 -6 -5 9 -9 35 5 35 18 0 8 -14 12 -34 12 -18 0 -33 -4 -33 -9z"/>
<path d="M1857 2793 c-3 -3 -3 -12 0 -20 5 -13 2 -14 -18 -4 -22 11 -23 11 -5
-3 10 -9 22 -13 27 -11 4 3 9 2 12 -2 2 -5 2 -2 0 6 -2 8 1 18 7 21 8 5 7 9
-3 13 -8 3 -17 3 -20 0z"/>
<path d="M1625 2780 c-3 -5 -1 -10 4 -10 6 0 11 5 11 10 0 6 -2 10 -4 10 -3 0
-8 -4 -11 -10z"/>
<path d="M1731 2779 c-1 -9 5 -19 12 -22 8 -3 14 1 14 9 0 7 -4 11 -8 8 -4 -2
-10 2 -12 8 -4 8 -6 7 -6 -3z"/>
<path d="M1555 2758 c-4 -16 -4 -40 1 -55 5 -21 8 -24 11 -10 3 9 8 17 13 17
10 0 8 -33 -3 -41 -4 -3 -1 -11 7 -18 11 -9 16 -9 22 0 4 7 3 9 -4 5 -13 -8
-13 34 1 52 14 18 2 25 -22 12 -12 -6 -21 -7 -21 -1 0 5 6 11 12 13 10 4 10
10 1 29 l-11 24 -7 -27z"/>
<path d="M1645 2760 c-3 -6 1 -7 9 -4 18 7 21 14 7 14 -6 0 -13 -4 -16 -10z"/>
<path d="M5747 2746 c-10 -14 -17 -31 -17 -38 0 -9 3 -9 10 2 8 13 10 13 10
-2 0 -27 -23 -71 -49 -94 l-24 -20 18 -53 c9 -29 14 -55 11 -58 -3 -4 4 -17
16 -30 17 -19 19 -23 5 -17 -14 5 -17 0 -17 -33 l0 -39 57 -2 c31 0 64 3 73 8
8 5 11 10 5 10 -5 0 -11 10 -12 23 -4 42 -15 87 -22 83 -3 -2 -7 28 -9 67 -2
39 -8 80 -14 90 -5 10 -7 21 -4 25 3 3 6 0 6 -6 0 -7 5 -12 11 -12 6 0 9 6 6
14 -3 8 -2 16 4 18 5 2 0 21 -11 43 -11 21 -20 35 -20 30 0 -6 -4 -4 -9 3 -6
10 -12 7 -24 -12z m38 -16 c3 -6 -1 -7 -9 -4 -18 7 -21 14 -7 14 6 0 13 -4 16
-10z m-45 -260 c8 -5 12 -11 10 -14 -3 -2 -14 2 -24 10 -22 15 -10 19 14 4z
m20 -55 c0 -2 -10 -9 -22 -15 -22 -11 -22 -10 -4 4 21 17 26 19 26 11z"/>
<path d="M1620 2726 c0 -8 -3 -23 -6 -33 -4 -13 -3 -15 4 -4 8 11 14 10 34 -3
13 -9 38 -17 54 -19 16 -2 36 -7 44 -12 8 -4 12 -4 7 0 -4 5 0 20 10 34 16 25
16 26 -3 10 -10 -9 -25 -14 -33 -11 -8 3 -11 0 -7 -7 4 -6 2 -11 -3 -11 -6 0
-11 8 -12 18 0 10 -3 12 -6 5 -2 -7 -11 -13 -19 -13 -9 0 -12 4 -9 10 3 6 -1
7 -9 4 -12 -5 -16 0 -16 20 0 16 -6 26 -15 26 -8 0 -15 -6 -15 -14z"/>
<path d="M1866 2715 c4 -8 8 -15 10 -15 2 0 4 7 4 15 0 8 -4 15 -10 15 -5 0
-7 -7 -4 -15z"/>
<path d="M2117 2710 c-3 -11 -3 -20 -1 -20 2 0 8 9 14 20 6 11 7 20 2 20 -6 0
-12 -9 -15 -20z"/>
<path d="M1846 2701 c-4 -5 -3 -17 1 -27 4 -11 3 -15 -4 -11 -6 4 -13 1 -16
-6 -3 -9 11 -12 53 -12 32 0 56 3 53 7 -2 5 2 11 11 14 30 12 24 30 -10 29
-18 -1 -36 -4 -40 -7 -3 -4 6 -5 21 -4 15 2 24 -1 22 -8 -2 -6 -14 -10 -25 -8
-12 2 -22 -2 -22 -7 0 -6 -4 -11 -9 -11 -5 0 -8 8 -7 18 0 10 -5 16 -13 14 -8
-2 -11 3 -8 13 7 16 2 21 -7 6z m15 -44 c-10 -9 -11 -8 -5 6 3 10 9 15 12 12
3 -3 0 -11 -7 -18z"/>
<path d="M2004 2695 c-4 -8 -11 -12 -17 -8 -5 3 -7 1 -3 -5 3 -5 3 -12 -1 -15
-5 -2 -2 -2 5 -1 7 2 15 -2 18 -9 2 -7 14 -14 27 -14 12 -1 17 1 11 5 -16 10
-3 37 19 38 9 1 17 -2 17 -7 0 -5 -4 -9 -8 -9 -5 0 -9 -6 -9 -14 0 -11 5 -12
23 -4 20 9 21 12 6 29 -8 10 -20 15 -25 12 -5 -3 -13 1 -18 8 -6 10 -9 11 -9
2 0 -7 -7 -13 -16 -13 -8 0 -12 5 -9 10 3 6 4 10 0 10 -3 0 -8 -7 -11 -15z
m26 -25 c0 -5 -5 -10 -11 -10 -5 0 -7 5 -4 10 3 6 8 10 11 10 2 0 4 -4 4 -10z"/>
<path d="M1775 2680 c-3 -6 1 -7 9 -4 18 7 21 14 7 14 -6 0 -13 -4 -16 -10z"/>
<path d="M1790 2660 c0 -6 -6 -8 -12 -4 -10 6 -10 4 0 -7 9 -9 15 -10 23 -2 8
8 8 13 0 17 -6 4 -11 2 -11 -4z"/>
<path d="M2156 2657 c3 -10 9 -15 12 -12 3 3 0 11 -7 18 -10 9 -11 8 -5 -6z"/>
<path d="M1645 2650 c-4 -6 1 -7 11 -3 13 5 15 3 9 -7 -5 -9 -4 -11 4 -6 6 4
9 12 6 17 -8 12 -22 12 -30 -1z"/>
<path d="M2135 2640 c-3 -5 -1 -10 4 -10 6 0 11 5 11 10 0 6 -2 10 -4 10 -3 0
-8 -4 -11 -10z"/>
<path d="M5222 2614 c-43 -34 -30 -60 33 -70 49 -7 66 -1 47 18 -7 7 -12 19
-12 28 0 9 -8 24 -18 33 -16 15 -20 14 -50 -9z"/>
<path d="M5100 2574 c-19 -8 -46 -25 -59 -37 l-23 -22 6 23 c9 27 2 28 -40 2
-27 -17 -34 -18 -41 -7 -7 11 -28 11 -138 0 -71 -7 -133 -17 -138 -22 -5 -5
-33 -76 -61 -158 l-53 -148 -409 1 c-225 1 -429 2 -454 3 -25 0 -47 -4 -48 -9
-2 -6 -45 -10 -98 -10 -78 0 -96 -3 -101 -16 -8 -21 85 -475 101 -491 8 -8
130 -15 401 -23 215 -6 404 -13 421 -16 27 -4 32 -10 42 -52 6 -26 24 -95 40
-154 l29 -108 -421 -2 c-413 -3 -421 -3 -421 -23 0 -20 7 -20 445 -20 l445 0
-1 30 c0 17 -19 96 -42 177 -23 82 -42 159 -42 173 0 14 21 92 46 173 72 227
184 569 199 605 l14 33 158 17 c87 10 170 17 186 17 l27 0 0 -605 0 -606 25
-24 24 -25 -182 0 c-204 0 -227 -6 -227 -60 0 -59 7 -60 280 -60 215 0 249 2
254 15 3 9 31 27 61 40 32 14 55 31 55 40 0 10 10 15 34 15 26 0 35 -5 40 -22
14 -54 8 -66 -36 -76 -31 -7 41 -10 252 -11 242 0 298 2 314 14 10 8 47 24 82
35 35 12 66 26 69 30 3 5 -9 50 -26 100 l-32 90 -78 0 c-78 0 -79 0 -94 31 -9
17 -14 34 -10 37 3 3 8 -4 12 -16 3 -12 10 -22 15 -22 5 0 6 -5 3 -11 -5 -7
18 -9 68 -8 64 2 74 4 70 18 -3 9 -13 22 -21 29 -13 9 -13 12 -2 12 10 0 11 3
3 11 -6 6 -39 12 -72 13 -49 1 -60 -2 -56 -13 4 -11 2 -11 -8 -3 -8 7 -16 9
-20 6 -7 -7 -41 60 -51 99 -4 17 -2 27 4 27 6 0 8 -4 5 -10 -3 -5 -1 -10 5
-10 6 0 8 -4 5 -10 -4 -6 21 -10 69 -10 71 0 106 13 72 26 -10 4 -14 14 -11
28 3 11 -9 59 -26 106 -16 47 -33 97 -36 112 -3 17 -10 25 -17 21 -6 -4 -5 1
3 10 19 23 6 34 -15 13 -9 -10 -23 -15 -31 -12 -12 5 -14 -11 -11 -98 2 -57 0
-102 -4 -100 -4 2 -14 -6 -22 -18 -9 -12 -16 -17 -16 -10 0 6 0 15 0 20 0 4 4
7 9 7 5 0 13 4 18 9 4 5 4 7 -2 4 -27 -15 -53 13 -80 84 -25 67 -28 90 -36
268 -4 107 -4 245 0 305 4 61 6 112 4 114 -2 3 -13 -5 -26 -16 -71 -65 -259
-95 -339 -55 l-36 19 -40 -156 c-70 -269 -77 -308 -76 -426 0 -88 6 -130 28
-210 26 -94 43 -179 29 -145 -8 19 -24 30 -43 30 -13 0 -13 -1 0 -10 17 -11 6
-13 -27 -4 l-23 6 0 549 c0 302 -3 549 -7 549 -5 -1 -24 -8 -43 -16z m380
-420 c0 -8 -4 -14 -10 -14 -5 0 -10 -5 -10 -11 0 -5 5 -7 10 -4 6 3 10 -3 10
-13 0 -11 2 -35 5 -53 l5 -34 -11 30 c-6 17 -11 36 -11 43 -2 17 -15 15 -22
-4 -3 -9 -6 -125 -6 -258 0 -175 3 -245 12 -254 8 -8 49 -12 120 -12 l108 0
20 -32 c11 -18 20 -36 20 -40 0 -3 -68 -6 -152 -7 -113 0 -153 -3 -159 -13 -7
-10 -9 -9 -9 5 0 9 -5 16 -12 15 -13 -3 -41 127 -53 242 -6 59 -4 77 29 174
20 60 47 130 60 156 13 26 27 61 31 79 6 30 25 34 25 5z m-1188 -30 c-2 -16
-14 -111 -28 -212 -13 -100 -24 -189 -24 -197 0 -12 -20 -15 -110 -15 l-110 0
0 225 0 224 128 3 c159 4 148 6 144 -28z m243 24 c-2 -7 -34 -110 -70 -228
-37 -118 -69 -218 -72 -222 -2 -5 -26 -8 -54 -8 -44 0 -49 2 -49 22 0 27 50
418 55 436 3 8 32 12 99 12 72 0 94 -3 91 -12z m-905 -3 c17 -5 20 -15 18 -63
l-1 -57 -6 55 c-5 46 -8 31 -19 -100 -20 -237 -23 -260 -38 -260 -8 0 -14 3
-14 8 0 4 -18 94 -40 200 -22 106 -40 198 -40 206 0 14 105 22 140 11z m107
-42 c-3 -10 -5 -4 -5 12 0 17 2 24 5 18 2 -7 2 -21 0 -30z m86 30 c-13 -2 -33
-2 -45 0 -13 2 -3 4 22 4 25 0 35 -2 23 -4z m137 -18 c0 -8 -4 -15 -10 -15 -5
0 -7 7 -4 15 4 8 8 15 10 15 2 0 4 -7 4 -15z m-303 -172 c-2 -16 -4 -3 -4 27
0 30 2 43 4 28 2 -16 2 -40 0 -55z m1846 -14 c-4 -4 -9 16 -9 44 l-2 52 10
-44 c5 -24 6 -47 1 -52z m-1776 -16 c-2 -16 -4 -5 -4 22 0 28 2 40 4 28 2 -13
2 -35 0 -50z m242 -145 c1 -52 -1 -58 -19 -58 -11 0 -20 5 -20 11 0 5 5 7 10
4 10 -6 13 37 12 150 l0 50 8 -50 c4 -27 9 -76 9 -107z m1588 2 c3 -8 5 -21 4
-29 -1 -8 2 -10 10 -5 8 4 10 3 5 -5 -9 -14 -27 -5 -25 12 1 7 -1 19 -4 27
-13 32 -37 124 -36 139 0 9 9 -15 20 -54 11 -38 22 -77 26 -85z m-1820 18 c-2
-18 -4 -4 -4 32 0 36 2 50 4 33 2 -18 2 -48 0 -65z m33 -53 c10 -13 9 -15 -11
-14 -13 0 -18 3 -11 6 6 2 10 9 6 14 -9 15 2 10 16 -6z m-127 -12 c-7 -2 -19
-2 -25 0 -7 3 -2 5 12 5 14 0 19 -2 13 -5z m255 -10 c-16 -2 -40 -2 -55 0 -16
2 -3 4 27 4 30 0 43 -2 28 -4z m1716 -42 c15 -24 23 -40 17 -36 -6 3 -18 20
-27 36 -13 26 -17 29 -31 17 -15 -12 -15 -11 -4 10 7 13 14 22 15 20 2 -1 16
-23 30 -47z m206 -31 c-6 -11 -13 -20 -16 -20 -2 0 0 9 6 20 6 11 13 20 16 20
2 0 0 -9 -6 -20z m-175 -30 c-3 -5 -12 -10 -18 -10 -7 0 -6 4 3 10 19 12 23
12 15 0z m-473 -164 c-4 -34 -3 -35 34 -39 l39 -4 -42 -1 -43 -2 0 40 c0 22 4
40 8 40 4 0 6 -15 4 -34z m568 14 c6 -11 7 -20 2 -20 -6 0 -12 9 -15 20 -3 11
-3 20 -1 20 2 0 8 -9 14 -20z m-470 -50 c0 -5 -5 -10 -11 -10 -5 0 -7 5 -4 10
3 6 8 10 11 10 2 0 4 -4 4 -10z m413 -7 c-51 -2 -136 -2 -190 0 -54 1 -12 3
92 3 105 0 149 -2 98 -3z m262 -114 c9 -17 14 -37 11 -44 -5 -15 -116 -71
-158 -81 -20 -4 -28 -2 -28 7 0 18 135 146 157 149 1 0 10 -14 18 -31z"/>
<path d="M5260 2480 c25 -35 39 -37 71 -10 l24 19 -32 1 c-17 0 -44 5 -58 10
l-26 10 21 -30z"/>
<path d="M3982 2470 c-33 -20 -62 -72 -62 -110 0 -11 5 -20 10 -20 6 0 10 16
10 36 0 52 44 94 99 94 23 0 41 -1 41 -3 0 -1 -9 -20 -20 -42 -22 -42 -28
-159 -10 -170 6 -4 10 20 10 65 0 143 65 179 91 50 l7 -35 1 38 c1 25 -7 50
-20 68 l-20 29 43 0 c78 -1 108 -43 108 -150 0 -50 3 -69 11 -64 18 10 6 147
-15 179 -23 34 -80 59 -120 51 -40 -8 -44 -8 -91 -1 -31 5 -48 1 -73 -15z"/>
<path d="M6430 2171 c0 -5 11 -16 25 -25 22 -15 25 -23 24 -74 -1 -31 -4 -45
-6 -29 -2 15 -9 27 -15 27 -6 0 -8 13 -6 29 2 17 1 28 -4 25 -4 -3 -8 2 -8 10
0 9 -4 16 -9 16 -5 0 -8 -24 -6 -52 2 -29 1 -47 -2 -40 -2 6 -18 12 -34 12
-25 0 -30 -4 -27 -21 2 -13 -5 -27 -17 -35 -19 -13 -21 -11 -23 19 -2 17 -7
34 -12 35 -18 6 -10 55 12 79 12 13 17 23 11 23 -19 0 -44 -37 -46 -68 -2 -27
-5 -31 -24 -27 -13 2 -25 -1 -29 -6 -3 -6 -12 -8 -20 -5 -19 7 -18 -3 3 -26
13 -15 14 -21 4 -31 -10 -9 -11 -9 -6 4 4 10 1 20 -6 24 -9 6 -11 -5 -7 -43 3
-28 1 -49 -4 -46 -4 3 -9 -23 -10 -58 -3 -80 -6 -131 -12 -188 -4 -36 -4 -39
3 -15 l9 30 1 -27 c1 -26 4 -28 42 -28 24 0 38 4 34 10 -4 7 3 7 19 0 16 -6
26 -6 26 0 0 6 9 6 25 0 15 -6 25 -6 25 0 0 5 13 5 32 -1 18 -5 66 -9 107 -9
71 0 73 1 68 23 -3 12 -9 73 -13 134 -3 62 -10 111 -13 108 -4 -2 -5 9 -3 26
6 38 -7 119 -18 119 -5 0 -11 -8 -13 -17 -3 -13 -5 -11 -7 7 -1 14 -3 30 -5
35 -1 6 -3 17 -3 26 -3 30 -62 78 -62 50z"/>
<path d="M5710 2111 c0 -16 6 -32 13 -34 10 -4 10 -6 0 -6 -19 -1 -17 -81 2
-81 8 0 19 9 25 19 14 27 45 17 97 -31 43 -38 66 -51 43 -23 -11 13 -10 14 4
9 10 -4 17 -1 17 7 1 8 3 21 4 29 0 8 7 29 14 45 7 17 13 41 14 55 1 14 7 28
12 32 6 4 -47 8 -117 8 l-128 0 0 -29z m30 -11 c0 -5 -5 -10 -11 -10 -5 0 -7
5 -4 10 3 6 8 10 11 10 2 0 4 -4 4 -10z"/>
<path d="M6337 2113 c-11 -10 -8 -93 3 -93 6 0 10 23 10 50 0 51 -1 55 -13 43z"/>
<path d="M8094 2005 c-18 -14 -17 -14 14 -15 l32 0 0 -55 c0 -30 5 -55 10 -55
6 0 10 30 10 70 0 66 -1 70 -23 70 -13 0 -32 -7 -43 -15z"/>
<path d="M6773 1974 c-3 -9 0 -31 7 -48 7 -17 18 -71 24 -119 10 -84 26 -109
26 -43 0 46 12 106 20 106 4 0 21 -31 37 -68 l30 -69 63 -6 c89 -10 153 -8
170 3 13 9 12 13 -5 26 -30 25 -104 56 -115 49 -18 -11 -68 24 -103 72 -45 62
-64 79 -110 98 -34 14 -38 14 -44 -1z"/>
<path d="M6198 1493 c-19 -5 -22 -22 -12 -60 5 -20 13 -23 53 -23 40 0 47 3
47 20 0 11 -4 20 -9 20 -4 0 -5 5 -2 10 4 6 1 17 -5 25 -14 17 -34 20 -24 4 4
-8 1 -8 -12 -2 -11 5 -27 8 -36 6z"/>
<path d="M6439 1481 c11 -7 10 -10 -5 -14 -18 -5 -18 -5 0 -6 16 -1 16 -3 5
-17 -10 -13 -10 -17 2 -25 8 -5 230 -8 532 -6 284 1 517 -1 517 -5 0 -5 -240
-8 -534 -8 l-533 0 -7 -46 c-9 -67 -8 -116 5 -174 l11 -50 523 0 523 0 8 68
c4 37 8 113 8 169 1 57 5 103 9 103 5 0 5 5 2 10 -4 6 -196 10 -543 10 -315 0
-531 -4 -523 -9z"/>
<path d="M6184 1358 c14 -87 28 -184 29 -205 2 -20 8 -23 45 -23 42 0 44 2 63
46 17 36 19 51 10 72 -8 21 -31 131 -31 149 0 2 -28 3 -61 3 l-62 0 7 -42z"/>
<path d="M3644 1226 c-10 -26 4 -48 28 -44 17 2 23 10 23 28 0 18 -6 26 -23
28 -13 2 -25 -3 -28 -12z"/>
<path d="M4384 1226 c-10 -26 4 -48 28 -44 17 2 23 10 23 28 0 18 -6 26 -23
28 -13 2 -25 -3 -28 -12z"/>
<path d="M1367 701 c29 -18 46 -19 225 -14 106 3 234 7 283 9 50 2 403 6 785
9 382 4 702 8 710 9 8 2 -446 4 -1010 5 -1016 1 -1025 1 -993 -18z"/>
<path d="M3528 713 c7 -3 16 -2 19 1 4 3 -2 6 -13 5 -11 0 -14 -3 -6 -6z"/>
<path d="M7305 710 c341 -4 685 -10 765 -14 437 -19 421 -19 560 13 19 5 -410
8 -955 8 -971 0 -978 -1 -370 -7z"/>
</g>
</svg>
