<?xml version="1.0" standalone="no"?>
<!DOCTYPE svg PUBLIC "-//W3C//DTD SVG 20010904//EN"
 "http://www.w3.org/TR/2001/REC-SVG-20010904/DTD/svg10.dtd">
<svg version="1.0" xmlns="http://www.w3.org/2000/svg"
 width="996.000000pt" height="664.000000pt" viewBox="0 0 996.000000 664.000000"
 preserveAspectRatio="xMidYMid meet">

<g transform="translate(0.000000,664.000000) scale(0.100000,-0.100000)"
fill="#000000" stroke="none">
<path d="M1266 5618 c4 -7 16 -25 26 -40 10 -14 18 -40 18 -58 0 -18 4 -29 10
-25 6 3 10 18 10 32 0 14 10 41 21 60 27 43 16 57 -14 19 l-23 -28 -13 26 c-8
14 -21 26 -28 26 -9 0 -11 -5 -7 -12z"/>
<path d="M1405 5605 c-14 -13 -25 -33 -25 -45 0 -27 43 -70 70 -70 29 0 60 35
60 70 0 35 -31 70 -60 70 -12 0 -32 -11 -45 -25z m69 -11 c22 -21 20 -47 -5
-70 -26 -23 -53 -9 -57 30 -6 48 31 72 62 40z"/>
<path d="M1530 5576 c0 -58 16 -86 50 -86 34 0 50 28 50 86 0 30 -4 54 -10 54
-5 0 -10 -22 -10 -49 0 -56 -19 -82 -45 -61 -10 8 -15 30 -15 61 0 27 -4 49
-10 49 -5 0 -10 -24 -10 -54z"/>
<path d="M1654 5616 c-9 -23 0 -121 11 -119 6 1 12 12 13 24 4 21 4 20 33 -7
33 -32 53 -25 22 9 -18 19 -19 24 -7 35 23 21 17 51 -12 62 -35 14 -54 12 -60
-4z m55 -19 c8 -10 7 -17 -1 -25 -19 -19 -28 -14 -28 13 0 27 12 32 29 12z"/>
<path d="M1812 5563 l3 -68 33 -2 c36 -1 44 14 10 19 -20 3 -23 10 -26 61 -2
31 -7 57 -13 57 -6 0 -9 -27 -7 -67z"/>
<path d="M1919 5612 c-45 -37 -16 -122 41 -122 32 0 63 34 63 70 0 36 -31 70
-63 70 -10 0 -28 -8 -41 -18z m62 -12 c26 -15 26 -66 -1 -80 -14 -8 -26 -8
-40 0 -26 14 -27 65 -2 79 21 13 20 13 43 1z"/>
<path d="M2061 5609 c-30 -29 -25 -75 12 -103 26 -19 30 -19 55 -5 16 9 28 25
30 40 3 24 1 25 -30 20 -26 -4 -28 -6 -10 -9 25 -4 28 -12 10 -30 -19 -19 -36
-14 -54 13 -15 23 -15 27 1 51 14 21 21 24 48 18 28 -6 30 -5 18 10 -19 22
-53 20 -80 -5z"/>
<path d="M2200 5610 c-39 -39 -12 -120 40 -120 27 0 70 43 70 70 0 27 -43 70
-70 70 -11 0 -29 -9 -40 -20z m61 -10 c27 -15 26 -66 -2 -80 -42 -23 -78 40
-43 74 18 19 20 19 45 6z"/>
<path d="M7843 5601 c-49 -23 -73 -62 -73 -121 0 -50 22 -91 60 -114 25 -14
74 -16 402 -16 276 0 379 4 397 13 65 33 90 127 49 187 -46 69 -52 70 -443 70
-322 0 -353 -2 -392 -19z m97 -57 c0 -11 -6 -13 -20 -9 -26 8 -60 -11 -60 -35
0 -24 35 -49 61 -43 13 4 19 0 19 -11 0 -28 -65 -21 -89 10 -26 34 -26 54 -1
82 25 27 90 31 90 6z m550 -34 c0 -43 3 -50 20 -50 17 0 20 7 20 50 0 38 4 50
15 50 18 0 21 -80 5 -111 -12 -22 -59 -26 -78 -7 -18 18 -16 118 3 118 11 0
15 -12 15 -50z m-320 15 c0 -8 5 -15 12 -15 9 0 9 -3 0 -12 -15 -15 -16 -48
-2 -48 6 0 10 -5 10 -11 0 -6 -10 -9 -22 -7 -18 2 -24 11 -28 38 -3 19 -4 43
-2 53 5 21 32 23 32 2z m230 0 c0 -8 5 -15 12 -15 9 0 9 -3 0 -12 -15 -15 -16
-48 -2 -48 6 0 10 -4 10 -10 0 -5 -9 -10 -19 -10 -19 0 -31 18 -31 49 0 14 -6
17 -25 13 -17 -3 -25 -11 -25 -24 0 -15 5 -19 20 -15 13 3 20 0 20 -9 0 -17
-41 -19 -58 -2 -32 32 4 87 48 73 14 -4 20 -2 20 9 0 9 7 16 15 16 8 0 15 -7
15 -15z m-379 -15 c37 -20 18 -80 -26 -80 -43 0 -63 58 -27 79 22 13 29 13 53
1z m96 -2 c19 -15 17 -78 -2 -78 -10 0 -15 10 -15 30 0 17 -4 30 -10 30 -5 0
-10 -13 -10 -30 0 -20 -5 -30 -15 -30 -11 0 -15 11 -15 38 0 21 2 41 5 43 9
10 50 8 62 -3z m161 -37 c3 -41 3 -41 -30 -41 -39 0 -58 15 -58 45 0 30 19 45
54 41 29 -3 31 -7 34 -45z m340 34 c-2 -5 -7 -9 -13 -7 -5 1 -2 -4 8 -12 26
-20 18 -51 -12 -51 -14 0 -26 6 -29 14 -3 10 2 11 19 6 l24 -6 -25 19 c-21 17
-22 22 -10 36 14 18 43 18 38 1z"/>
<path d="M7974 5479 c-3 -6 -2 -15 4 -21 13 -13 32 -2 32 18 0 16 -26 19 -36
3z"/>
<path d="M8220 5469 c0 -24 23 -21 28 4 2 10 -3 17 -12 17 -10 0 -16 -9 -16
-21z"/>
<path d="M5023 5500 c0 -36 2 -53 4 -37 4 22 9 27 34 27 24 0 29 -4 29 -25 0
-14 5 -25 10 -25 6 0 10 25 10 55 0 30 -4 55 -10 55 -5 0 -10 -12 -10 -26 0
-22 -4 -25 -27 -22 -22 2 -29 10 -34 33 -4 20 -7 8 -6 -35z"/>
<path d="M5906 5545 c-19 -20 -12 -39 20 -54 32 -14 26 -36 -9 -36 -30 1 -38
-14 -9 -16 29 -2 47 2 54 14 13 20 9 27 -22 45 -37 21 -39 42 -2 42 21 0 24 2
12 10 -20 13 -26 12 -44 -5z"/>
<path d="M7022 5504 c-2 -56 0 -62 21 -68 31 -8 61 28 46 56 -8 14 -18 19 -34
15 -20 -3 -25 1 -28 27 -2 17 -5 3 -5 -30z m56 -27 c4 -20 -25 -34 -40 -19
-15 15 -1 44 19 40 10 -2 19 -11 21 -21z"/>
<path d="M6926 5517 c-7 -19 -17 -45 -20 -58 -6 -22 -6 -22 7 -6 18 21 67 23
67 2 0 -8 5 -15 11 -15 6 0 9 6 6 13 -31 78 -40 97 -48 97 -5 0 -15 -15 -23
-33z m44 -29 c0 -4 -9 -8 -21 -8 -15 0 -19 4 -15 16 3 9 6 21 6 27 1 13 30
-22 30 -35z"/>
<path d="M7310 5525 c-6 -59 9 -111 24 -86 4 6 2 11 -3 11 -6 0 -11 11 -11 25
0 14 6 25 13 25 8 0 9 3 1 8 -6 4 -14 14 -17 22 -4 11 -6 10 -7 -5z"/>
<path d="M5137 5503 c-26 -26 12 -80 47 -67 21 8 30 42 16 59 -13 15 -51 20
-63 8z m51 -31 c3 -16 -2 -22 -17 -22 -24 0 -35 15 -27 36 9 23 40 13 44 -14z"/>
<path d="M5230 5475 c0 -19 5 -35 11 -35 5 0 7 5 4 10 -10 16 5 50 21 50 9 0
14 -11 14 -30 0 -16 5 -30 10 -30 6 0 10 14 10 30 0 20 5 30 15 30 10 0 15
-10 15 -30 0 -16 5 -30 11 -30 6 0 9 14 7 33 -3 32 -4 32 -60 35 l-58 2 0 -35z"/>
<path d="M5377 5504 c-26 -27 12 -82 47 -68 25 9 19 22 -8 17 -13 -3 -27 0
-30 6 -5 7 4 11 24 11 25 0 31 4 28 18 -3 17 -48 29 -61 16z m48 -14 c4 -6 -5
-10 -20 -10 -15 0 -24 4 -20 10 3 6 12 10 20 10 8 0 17 -4 20 -10z"/>
<path d="M5990 5495 c-25 -31 17 -76 51 -54 10 6 6 9 -13 9 -16 0 -28 5 -28
10 0 6 14 10 30 10 32 0 37 9 18 28 -16 16 -43 15 -58 -3z m50 -5 c0 -5 -9
-10 -20 -10 -11 0 -20 5 -20 10 0 6 9 10 20 10 11 0 20 -4 20 -10z"/>
<path d="M6081 5470 l1 -35 7 30 c9 43 44 46 61 6 7 -17 16 -31 21 -31 10 0
42 60 36 67 -3 3 -12 -8 -20 -24 l-15 -28 -13 28 c-10 23 -18 27 -46 25 -31
-2 -33 -4 -32 -38z"/>
<path d="M6233 5475 c0 -22 2 -30 4 -17 2 12 2 30 0 40 -3 9 -5 -1 -4 -23z"/>
<path d="M6269 5488 c-10 -18 -8 -24 11 -40 12 -10 27 -15 34 -10 7 4 3 8 -11
10 -15 2 -23 10 -23 23 0 11 10 24 23 29 l22 9 -22 0 c-13 1 -27 -8 -34 -21z"/>
<path d="M6350 5495 c-24 -28 9 -72 45 -59 24 10 17 22 -10 16 -15 -2 -25 0
-25 7 0 6 14 11 30 11 32 0 37 9 18 28 -16 16 -43 15 -58 -3z m50 -5 c0 -5 -9
-10 -20 -10 -11 0 -20 5 -20 10 0 6 9 10 20 10 11 0 20 -4 20 -10z"/>
<path d="M7121 5496 c-16 -19 -6 -52 19 -59 28 -7 53 15 48 44 -4 29 -47 39
-67 15z m54 -21 c0 -13 -8 -21 -22 -23 -17 -3 -23 2 -23 16 0 10 3 22 7 26 13
13 38 1 38 -19z"/>
<path d="M7210 5480 c0 -19 7 -33 19 -40 32 -17 51 -2 50 39 -1 35 -1 35 -8 6
-9 -42 -41 -47 -41 -6 0 17 -4 31 -10 31 -5 0 -10 -13 -10 -30z"/>
<path d="M5280 4746 c-61 -17 -84 -31 -104 -60 -21 -34 -46 -130 -46 -182 0
-124 69 -367 170 -596 l52 -117 39 14 c22 8 55 26 74 41 77 58 166 219 185
335 27 159 -37 381 -143 496 -72 79 -129 96 -227 69z m134 -234 c40 -58 57
-110 63 -187 4 -55 2 -78 -11 -104 l-17 -33 -32 25 c-79 60 -130 242 -94 330
16 37 17 38 41 22 13 -9 35 -33 50 -53z"/>
<path d="M2490 4386 c0 -198 1 -214 18 -212 15 3 17 22 20 214 2 207 2 212
-18 212 -19 0 -20 -6 -20 -214z"/>
<path d="M1520 4379 c0 -188 2 -210 16 -205 9 3 18 6 20 6 2 0 4 38 4 85 0 78
2 85 20 85 13 0 42 -29 87 -90 50 -67 73 -90 90 -90 13 0 23 3 23 7 0 4 -27
43 -61 86 -33 43 -59 80 -57 81 1 2 18 11 35 20 43 22 67 68 60 119 -10 73
-66 107 -179 107 l-58 0 0 -211z m164 150 c28 -22 36 -73 16 -109 -12 -22 -60
-40 -106 -40 l-34 0 0 85 0 85 49 0 c34 0 56 -6 75 -21z"/>
<path d="M2809 4573 c-34 -21 -59 -63 -59 -101 0 -40 32 -78 93 -108 64 -32
87 -52 87 -75 0 -49 -78 -65 -139 -28 l-35 21 -18 -24 c-24 -31 -23 -33 14
-59 23 -17 50 -24 95 -27 106 -7 163 32 163 113 0 57 -27 89 -107 127 -35 17
-68 39 -73 49 -24 45 31 75 96 53 35 -12 40 -12 52 3 19 26 15 41 -18 58 -38
20 -118 19 -151 -2z"/>
<path d="M3087 4523 c-4 -3 -7 -26 -7 -50 0 -32 -4 -43 -15 -43 -9 0 -15 -9
-15 -25 0 -16 6 -25 15 -25 12 0 15 -15 15 -76 0 -104 17 -134 77 -134 53 0
63 8 52 40 -8 20 -15 27 -29 23 -24 -6 -33 23 -28 93 3 45 5 49 31 52 21 3 27
9 27 28 0 20 -5 24 -30 24 -29 0 -30 1 -30 50 0 48 -1 50 -28 50 -16 0 -32 -3
-35 -7z"/>
<path d="M3607 4524 c-4 -4 -7 -27 -7 -51 0 -32 -4 -43 -15 -43 -9 0 -15 -9
-15 -25 0 -14 6 -25 14 -25 10 0 15 -23 19 -86 6 -104 20 -124 83 -124 24 0
45 4 48 8 10 17 -7 51 -28 54 -19 3 -21 10 -24 76 -3 71 -3 72 23 72 20 0 25
5 25 25 0 20 -5 25 -24 25 -23 0 -25 5 -28 48 -3 44 -5 47 -33 50 -17 2 -34 0
-38 -4z"/>
<path d="M6764 4486 c-53 -16 -281 -142 -947 -526 -482 -278 -876 -508 -877
-511 -1 -27 54 -4 219 92 105 60 194 109 199 109 5 0 95 -151 202 -335 106
-184 195 -335 197 -335 2 0 196 111 431 247 235 135 434 250 442 254 17 9 263
59 291 59 11 0 68 -68 156 -187 76 -102 141 -191 145 -196 3 -6 133 63 296
156 159 92 292 167 296 167 3 0 6 -35 8 -77 l3 -77 170 -99 c94 -54 176 -101
183 -104 25 -11 11 18 -29 54 -23 21 -65 75 -95 120 -50 75 -60 85 -143 132
l-89 51 -147 200 c-82 110 -152 200 -158 200 -5 0 -72 -12 -148 -27 -77 -14
-141 -24 -143 -22 -2 2 -91 155 -196 339 -106 184 -193 336 -194 336 0 1 -33
-8 -72 -20z"/>
<path d="M1883 4425 c-45 -19 -73 -69 -73 -129 0 -43 4 -53 39 -87 35 -35 44
-39 91 -39 53 0 105 21 115 47 8 24 -23 26 -51 4 -39 -31 -89 -28 -125 8 -16
16 -29 39 -29 50 0 20 5 21 110 21 107 0 110 1 110 23 0 35 -34 82 -73 100
-42 20 -71 21 -114 2z m122 -50 c46 -46 35 -55 -65 -55 -100 0 -111 9 -65 55
34 35 96 35 130 0z"/>
<path d="M2205 4431 c-32 -14 -66 -57 -74 -93 -12 -54 -1 -96 34 -134 28 -30
38 -34 82 -34 35 0 58 6 76 20 31 24 35 25 33 3 -1 -12 6 -18 19 -18 19 0 20
8 23 128 l3 127 -25 0 c-19 0 -24 -4 -21 -20 5 -25 -3 -25 -31 1 -24 23 -88
34 -119 20z m107 -42 c27 -15 49 -71 42 -109 -4 -17 -20 -42 -37 -56 -61 -51
-147 -6 -147 77 0 74 78 122 142 88z"/>
<path d="M3315 4426 c-49 -22 -68 -51 -73 -110 -5 -63 15 -109 58 -131 37 -19
99 -19 127 0 17 12 22 12 26 2 3 -8 19 -13 38 -12 l33 2 -1 114 c-1 63 -1 120
-2 127 -1 7 -15 12 -36 12 -26 0 -35 -4 -35 -17 0 -15 -1 -15 -19 1 -25 23
-80 29 -116 12z m111 -69 c53 -46 26 -127 -42 -127 -76 0 -101 112 -31 140 34
14 44 12 73 -13z"/>
<path d="M3840 4422 c-42 -21 -80 -75 -80 -114 0 -44 29 -98 64 -119 55 -34
157 -21 195 25 11 13 9 17 -14 28 -22 10 -31 9 -56 -6 -45 -27 -109 -6 -109
35 0 17 9 19 96 19 l97 0 -6 41 c-6 47 -29 76 -74 95 -43 18 -71 18 -113 -4z
m98 -48 c41 -29 28 -44 -39 -44 -52 0 -60 2 -57 17 3 17 41 43 63 43 6 0 21
-7 33 -16z"/>
<path d="M1751 3794 c0 -11 3 -14 6 -6 3 7 2 16 -1 19 -3 4 -6 -2 -5 -13z"/>
<path d="M2237 3783 c3 -7 6 -13 8 -13 2 0 5 6 8 13 3 8 -1 14 -8 14 -7 0 -11
-6 -8 -14z"/>
<path d="M1554 3320 c-29 -11 -71 -64 -79 -98 -9 -44 15 -103 54 -129 l34 -23
544 0 c496 0 548 2 574 17 57 34 76 120 39 181 -38 62 -34 62 -617 61 -290 0
-537 -4 -549 -9z m147 -50 c23 -13 25 -43 4 -60 -14 -12 -13 -16 6 -37 20 -20
20 -23 5 -23 -10 0 -26 10 -37 23 l-18 22 -1 -22 c0 -14 -6 -23 -15 -23 -12 0
-15 13 -15 58 0 32 3 62 7 65 10 10 42 8 64 -3z m351 -9 c-1 -6 2 -29 7 -51 6
-27 5 -42 -3 -48 -22 -17 -55 -20 -75 -5 -37 26 -20 73 26 73 18 0 23 6 23 26
0 16 5 24 13 21 6 -2 11 -10 9 -16z m135 -18 l16 -38 12 35 c16 47 38 45 47
-5 11 -64 9 -85 -7 -85 -11 0 -15 11 -16 38 l-1 37 -12 -34 c-15 -43 -32 -50
-40 -16 -7 29 -26 25 -26 -6 0 -10 -6 -19 -14 -19 -10 0 -12 13 -9 53 8 90 23
103 50 40z m188 -54 c0 -30 -3 -34 -28 -37 -53 -6 -77 43 -36 72 34 23 64 6
64 -35z m192 -3 c-3 -26 -8 -32 -32 -34 -19 -3 -33 2 -42 14 -17 24 -17 30 7
54 17 17 24 18 45 8 21 -9 25 -17 22 -42z m-747 24 c8 -14 8 -26 0 -40 -19
-35 -80 -20 -80 20 0 40 61 55 80 20z m120 -21 l0 -40 -42 3 c-36 3 -44 7 -46
26 -6 41 5 52 48 52 l40 0 0 -41z m530 32 c0 -5 -9 -11 -21 -14 -14 -4 -20
-12 -17 -28 2 -12 -3 -24 -9 -26 -9 -3 -13 8 -13 36 0 39 2 41 30 41 17 0 30
-4 30 -9z"/>
<path d="M1660 3235 c0 -8 7 -15 15 -15 8 0 15 7 15 15 0 8 -7 15 -15 15 -8 0
-15 -7 -15 -15z"/>
<path d="M1994 3199 c-10 -17 13 -36 27 -22 12 12 4 33 -11 33 -5 0 -12 -5
-16 -11z"/>
<path d="M2320 3190 c0 -15 5 -20 18 -18 9 2 17 10 17 18 0 8 -8 16 -17 18
-13 2 -18 -3 -18 -18z"/>
<path d="M2518 3203 c7 -3 16 -2 19 1 4 3 -2 6 -13 5 -11 0 -14 -3 -6 -6z"/>
<path d="M2518 3173 c6 -2 18 -2 25 0 6 3 1 5 -13 5 -14 0 -19 -2 -12 -5z"/>
<path d="M1778 3203 c7 -3 16 -2 19 1 4 3 -2 6 -13 5 -11 0 -14 -3 -6 -6z"/>
<path d="M1778 3173 c7 -3 16 -2 19 1 4 3 -2 6 -13 5 -11 0 -14 -3 -6 -6z"/>
<path d="M1875 3200 c-8 -14 3 -30 21 -30 8 0 14 9 14 20 0 21 -24 28 -35 10z"/>
<path d="M4425 2889 c-297 -171 -550 -322 -562 -335 -20 -22 -23 -36 -23 -111
0 -84 1 -86 33 -116 17 -16 453 -272 967 -569 1018 -588 1005 -581 1119 -562
56 9 135 54 2061 1167 l165 95 3 116 c2 110 -1 128 -24 107 -5 -5 -421 -246
-924 -536 -503 -291 -999 -577 -1103 -637 -103 -59 -191 -108 -196 -108 -5 0
-352 198 -772 441 -420 243 -855 493 -966 558 -112 64 -203 119 -203 123 0 8
-18 -3 505 298 242 139 446 258 453 265 8 8 12 30 10 63 l-3 52 -540 -311z"/>
<path d="M7820 3010 c0 -159 0 -160 23 -160 12 0 93 5 180 12 l157 12 0 47 0
47 -105 61 c-58 34 -111 59 -117 55 -6 -4 -8 -3 -5 4 6 8 -108 82 -127 82 -3
0 -6 -72 -6 -160z m50 126 c0 -2 -7 -7 -16 -10 -8 -3 -12 -2 -9 4 6 10 25 14
25 6z m65 -35 c3 -5 2 -12 -3 -15 -5 -3 -9 1 -9 9 0 17 3 19 12 6z"/>
<path d="M8475 3065 c-16 -8 -49 -14 -72 -15 -65 0 -47 -31 53 -88 46 -26 84
-51 84 -57 0 -5 -38 -32 -85 -58 -69 -39 -85 -53 -85 -72 0 -13 -5 -25 -12
-27 -9 -3 -9 -12 1 -36 12 -27 16 -30 29 -20 13 11 12 8 -1 -19 -19 -36 -21
-61 -8 -82 7 -12 36 1 147 64 75 43 145 86 155 96 29 29 27 186 -1 222 -17 21
-158 109 -171 106 -2 0 -17 -7 -34 -14z"/>
<path d="M4949 2963 c-1 -5 -1 -12 0 -16 1 -5 -3 -6 -8 -2 -14 8 -73 -24 -66
-35 4 -6 -1 -7 -11 -3 -11 4 -15 3 -10 -5 3 -6 1 -14 -5 -18 -8 -5 -9 -3 -4 6
9 14 9 14 -57 -20 -27 -13 -48 -28 -48 -32 0 -4 -6 -8 -12 -8 -21 -1 -119 -66
-111 -74 4 -4 0 -4 -10 0 -10 4 -19 1 -22 -8 -3 -8 -12 -15 -19 -15 -21 0
-197 -104 -191 -113 3 -5 0 -12 -6 -16 -8 -4 -9 -3 -5 4 11 18 3 15 -64 -20
-33 -18 -56 -34 -50 -36 6 -2 17 2 25 8 8 7 15 8 15 3 0 -5 34 -5 83 -1 45 5
97 9 115 9 22 1 32 6 33 18 0 13 2 12 10 -4 8 -17 9 -16 6 7 -2 15 -1 26 2 25
12 -3 62 52 64 71 0 12 4 19 8 17 3 -3 14 4 24 15 47 51 206 72 288 37 l37
-16 0 115 c0 62 -2 114 -5 114 -3 0 -6 -3 -6 -7z m-409 -303 c8 -5 11 -10 5
-10 -5 0 -17 5 -25 10 -8 5 -10 10 -5 10 6 0 17 -5 25 -10z"/>
<path d="M5410 2606 l0 -224 92 -54 c51 -29 96 -55 100 -56 5 -2 7 99 6 224
l-3 228 -90 52 c-49 29 -93 53 -97 54 -5 0 -8 -101 -8 -224z m27 -58 c-3 -7
-5 -2 -5 12 0 14 2 19 5 13 2 -7 2 -19 0 -25z"/>
<path d="M5998 2553 c-3 -4 -4 -82 -4 -172 l1 -165 70 -41 c39 -23 97 -56 130
-75 33 -18 65 -36 70 -40 37 -28 89 -50 95 -40 3 6 7 82 8 169 2 139 0 160
-16 173 -13 12 -315 184 -343 196 -4 2 -9 -1 -11 -5z m80 -125 c17 -17 15 -41
-3 -34 -20 7 -19 -4 5 -34 11 -14 20 -32 21 -40 1 -8 7 3 13 25 20 63 38 51
56 -35 l15 -75 3 63 c4 79 22 81 22 2 0 -47 4 -64 20 -80 l20 -20 0 60 c0 33
3 60 8 60 13 0 52 -31 52 -42 0 -6 -9 -8 -20 -5 -25 7 -26 -5 0 -28 21 -19 17
-40 -6 -31 -12 4 -12 2 -4 -14 6 -11 15 -20 20 -20 6 0 10 -7 10 -15 0 -8 -3
-15 -6 -15 -7 0 -48 22 -54 29 -3 3 -22 15 -44 26 -21 10 -42 29 -46 41 -11
27 -32 42 -38 26 -2 -7 -11 -12 -19 -12 -9 0 -13 6 -10 14 4 9 0 12 -12 9 -20
-5 -51 21 -51 43 0 19 10 18 26 -3 21 -28 16 2 -7 41 -30 52 -8 101 29 64z"/>
<path d="M8356 2498 c-19 -26 -21 -42 -5 -32 7 4 10 1 7 -7 -6 -15 31 -89 44
-89 14 0 9 19 -18 71 -20 40 -23 54 -13 65 6 8 9 14 6 14 -3 0 -13 -10 -21
-22z m38 -94 c3 -8 2 -12 -4 -9 -6 3 -10 10 -10 16 0 14 7 11 14 -7z"/>
<path d="M8347 2224 c-9 -10 22 -66 33 -59 6 4 10 11 10 16 0 6 -4 8 -9 4 -5
-3 -12 -1 -16 5 -3 5 -2 10 4 10 6 0 8 7 5 15 -6 16 -17 19 -27 9z"/>
<path d="M1550 1337 c-64 -23 -98 -106 -67 -167 17 -33 74 -70 109 -70 66 0
119 53 120 121 1 85 -81 144 -162 116z m108 -49 c18 -18 15 -113 -4 -129 -22
-18 -116 -13 -131 8 -18 23 -16 84 3 111 12 18 25 22 68 22 28 0 57 -5 64 -12z"/>
<path d="M1537 1273 c-13 -12 -7 -90 7 -102 8 -7 34 -11 58 -9 l43 3 3 58 3
57 -54 0 c-29 0 -57 -3 -60 -7z m96 -35 c-3 -18 -11 -39 -18 -47 -17 -17 -52
-6 -60 20 -8 26 9 47 43 52 15 2 30 5 34 6 4 0 5 -14 1 -31z"/>
<path d="M1574 1235 c-7 -18 3 -35 21 -35 18 0 26 25 12 39 -15 15 -27 14 -33
-4z"/>
<path d="M1964 1336 c-101 -45 -97 -196 6 -227 50 -15 86 -5 127 36 26 26 33
41 33 72 0 46 -16 80 -50 104 -35 26 -79 32 -116 15z m76 -54 c0 -4 -5 -13
-12 -20 -9 -9 -9 -12 0 -12 7 0 12 -7 12 -15 0 -8 -4 -15 -9 -15 -6 0 -11 -14
-13 -32 -5 -50 -25 -45 -31 9 -6 58 6 93 33 93 11 0 20 -4 20 -8z"/>
<path d="M2370 1332 c-92 -49 -87 -179 7 -219 103 -42 205 62 158 160 -31 67
-104 92 -165 59z m105 -107 l0 -90 -52 -3 -53 -3 0 89 c0 49 3 92 7 96 4 4 28
6 53 4 l45 -3 0 -90z"/>
<path d="M2390 1231 l0 -69 35 0 35 0 0 69 0 69 -35 0 -35 0 0 -69z"/>
</g>
</svg>
