<?xml version="1.0" standalone="no"?>
<!DOCTYPE svg PUBLIC "-//W3C//DTD SVG 20010904//EN"
 "http://www.w3.org/TR/2001/REC-SVG-20010904/DTD/svg10.dtd">
<svg version="1.0" xmlns="http://www.w3.org/2000/svg"
 width="740.000000pt" height="740.000000pt" viewBox="0 0 740.000000 740.000000"
 preserveAspectRatio="xMidYMid meet">

<g transform="translate(0.000000,740.000000) scale(0.100000,-0.100000)"
fill="#000000" stroke="none">
<path d="M0 3700 l0 -3700 3700 0 3700 0 0 3700 0 3700 -3700 0 -3700 0 0
-3700z m5880 1495 c0 -8 -12 -17 -27 -21 -16 -3 -46 -12 -68 -19 -22 -8 -67
-21 -100 -29 -33 -8 -103 -26 -155 -40 -253 -67 -299 -78 -350 -85 -30 -5
-116 -24 -190 -43 -198 -52 -273 -69 -278 -63 -16 15 44 35 293 100 77 20 192
50 255 67 63 16 140 35 170 43 75 17 171 42 257 65 39 11 84 20 100 21 15 0
37 4 48 9 30 13 45 12 45 -5z m-2080 -325 c0 -5 -2 -10 -4 -10 -3 0 -8 5 -11
10 -3 6 -1 10 4 10 6 0 11 -4 11 -10z m1518 -435 c0 -84 -3 -130 -8 -115 -4
14 -8 88 -8 165 0 84 3 130 8 115 4 -14 8 -88 8 -165z m-34 -37 c5 -70 4 -118
-2 -118 -10 0 -33 290 -24 305 9 15 19 -53 26 -187z m-38 -2 c11 -107 13 -151
5 -159 -8 -8 -11 -7 -11 4 0 7 -7 74 -15 147 -12 116 -12 172 1 159 2 -2 11
-70 20 -151z m-35 -62 c12 -87 16 -141 10 -147 -6 -6 -12 3 -15 24 -3 19 -10
64 -16 100 -11 71 -14 176 -4 166 3 -3 15 -67 25 -143z m-2480 67 c0 -3 2 -13
4 -22 2 -11 -3 -16 -14 -15 -21 4 -28 43 -6 43 8 0 15 -3 16 -6z m2448 -141
c17 -91 21 -134 14 -141 -7 -7 -17 24 -32 104 -22 120 -26 167 -13 167 4 0 18
-59 31 -130z m-34 -75 c26 -102 31 -145 16 -145 -11 0 -51 173 -51 219 0 51 8
35 35 -74z m-22 -115 c25 -80 28 -112 15 -125 -8 -9 -58 158 -58 196 0 48 13
26 43 -71z m-1441 -50 c6 0 8 -3 5 -6 -4 -4 4 -16 18 -28 l24 -21 -47 2 c-27
1 -57 -5 -69 -13 -20 -12 -22 -12 -17 1 4 8 10 15 14 15 18 0 20 35 3 48 -16
13 -16 14 9 10 25 -5 28 -2 35 31 l8 36 3 -37 c2 -21 8 -38 14 -38z m1417 -61
c21 -55 28 -84 23 -104 -7 -24 -10 -19 -40 52 -17 44 -32 95 -32 113 0 46 12
31 49 -61z m-25 -113 c33 -58 48 -126 28 -126 -16 0 -72 119 -72 154 0 20 2
36 4 36 2 0 20 -29 40 -64z m-135 -190 c13 -14 28 -23 33 -20 5 3 7 0 6 -7 -2
-7 11 -20 28 -28 52 -27 84 -58 84 -82 0 -13 18 -44 40 -69 l40 -44 0 -94 c0
-51 4 -91 9 -88 4 3 7 18 5 33 -4 27 -3 27 4 3 10 -30 -12 -63 -70 -110 -21
-17 -36 -36 -32 -41 3 -5 0 -8 -7 -7 -7 2 -15 -5 -17 -14 -2 -12 1 -16 11 -12
24 9 28 -53 5 -82 -11 -13 -16 -29 -12 -35 4 -8 3 -9 -4 -5 -7 4 -12 1 -12 -8
0 -9 -3 -15 -7 -15 -5 1 -17 1 -28 -1 l-20 -1 20 -8 c11 -5 25 -5 31 0 6 5 13
6 17 3 3 -3 8 4 12 15 8 27 25 27 26 1 3 -38 7 -75 14 -117 5 -29 3 -54 -7
-80 -9 -21 -13 -44 -10 -52 3 -8 0 -11 -7 -7 -17 11 -34 -41 -21 -62 9 -14 10
-13 4 7 -4 14 -2 21 4 17 9 -5 23 20 37 72 7 24 24 30 26 10 3 -35 -5 -77 -22
-122 -15 -36 -17 -52 -9 -60 8 -8 9 -6 5 7 -4 10 -2 17 4 17 6 0 14 18 17 40
4 22 10 37 15 34 12 -7 11 -81 -1 -123 -5 -19 -8 -37 -5 -39 2 -3 6 1 8 9 2 8
11 35 19 62 9 26 12 50 7 53 -5 3 -9 13 -9 22 0 15 2 15 10 2 11 -15 11 -11
-4 60 -5 28 18 70 27 48 4 -8 6 -7 6 5 1 9 -6 17 -14 17 -14 0 -15 11 -9 78 8
87 13 105 15 46 1 -21 3 -31 6 -22 4 16 6 16 20 2 11 -11 14 -27 10 -57 -3
-23 -4 -36 -1 -29 15 35 25 2 25 -90 1 -149 3 -172 13 -180 6 -4 5 -12 -2 -20
-12 -15 -14 -88 -3 -88 4 0 8 -33 10 -72 3 -89 11 -104 11 -23 0 44 3 56 11
48 8 -8 10 -54 7 -144 -2 -73 -1 -119 3 -103 4 16 9 160 12 319 3 162 10 301
16 315 7 19 10 20 10 7 1 -10 5 -16 10 -12 5 3 12 -3 16 -14 3 -11 12 -22 20
-25 8 -3 12 -12 9 -21 -3 -8 -2 -15 3 -15 5 0 9 -50 9 -115 -1 -63 3 -115 7
-115 5 0 6 -9 2 -20 -5 -14 -2 -18 7 -15 11 5 17 -19 27 -112 6 -65 12 -125
13 -133 1 -16 16 -30 33 -30 6 0 5 4 -2 8 -24 15 -55 303 -35 316 9 5 34 -137
34 -194 0 -34 0 -34 8 -8 4 15 4 44 -1 65 -16 70 -23 217 -11 209 9 -5 12 7
13 41 1 26 1 52 0 56 -1 5 3 6 9 2 6 -3 8 -11 5 -16 -4 -5 -2 -9 3 -9 5 0 10
21 10 48 0 37 -2 42 -8 22 -7 -23 -8 -23 -9 -3 -2 35 29 39 40 5 2 -6 4 21 4
62 0 42 -4 72 -9 68 -5 -3 -6 0 -2 6 11 18 26 14 26 -6 0 -10 14 -55 30 -100
17 -46 30 -91 30 -102 0 -33 -20 -33 -32 0 -6 17 -14 28 -19 23 -10 -10 0 -53
13 -53 5 0 6 -10 3 -21 -4 -12 -3 -19 1 -16 5 3 7 -55 4 -128 -3 -74 -2 -151
2 -172 4 -21 7 -128 7 -238 1 -205 10 -370 19 -360 5 5 28 491 33 695 1 41 3
67 6 58 2 -10 10 -18 16 -18 7 0 18 -9 25 -20 7 -11 19 -20 26 -20 21 0 24
-43 31 -439 3 -195 7 -356 9 -358 2 -2 17 -8 35 -13 l31 -9 2 152 c1 84 3 172
4 197 1 25 2 60 3 78 1 17 6 32 11 32 6 0 10 -92 10 -255 0 -140 -3 -255 -6
-255 -3 0 -13 4 -23 9 -9 5 -38 12 -63 15 -47 5 -162 32 -278 65 -36 10 -108
28 -160 40 -52 12 -106 26 -120 31 -14 4 -50 15 -80 23 -293 78 -440 123 -440
134 0 16 3 16 70 -2 30 -8 64 -15 75 -15 20 0 20 6 18 582 -2 444 1 585 10
596 27 33 -50 -18 -111 -73 l-63 -57 2 418 c0 231 4 437 8 459 6 31 8 18 10
-60 2 -55 6 -145 9 -200 l7 -100 8 130 c4 71 12 134 17 139 7 7 10 4 10 -7 0
-9 7 -17 15 -17 17 0 20 25 5 35 -5 3 -10 16 -10 28 0 18 2 19 10 7 6 -10 9
11 7 67 l-3 81 56 -48 c30 -26 66 -60 79 -74z m129 48 c30 -40 41 -82 25 -98
-4 -4 -24 12 -45 35 -36 41 -51 93 -31 113 7 7 6 8 51 -50z m-1808 -64 c0 -5
-4 -10 -10 -10 -5 0 -10 5 -10 10 0 6 5 10 10 10 6 0 10 -4 10 -10z m651 -74
c-28 -29 -33 -40 -28 -66 4 -18 3 -29 -3 -25 -5 3 -11 -14 -13 -37 l-4 -43 -2
50 c-1 46 -3 49 -16 31 -17 -23 -20 -4 -5 25 9 15 7 19 -7 20 -10 0 -4 5 12
10 17 4 44 22 60 39 16 16 31 30 34 30 3 0 -10 -15 -28 -34z m-1106 -100 c6 1
21 5 35 8 25 7 25 7 -2 -11 -31 -20 -34 -30 -15 -58 8 -11 22 -33 32 -50 l17
-30 -24 28 c-24 27 -45 37 -32 15 6 -9 3 -9 -9 0 -14 12 -16 8 -20 -45 -3 -57
-3 -57 -5 15 -1 39 -4 72 -6 72 -3 0 -26 -21 -51 -47 l-47 -48 51 68 c43 58
51 75 52 115 l2 47 6 -40 c3 -22 11 -39 16 -39z m2636 -67 c-14 -64 -14 -69 3
-69 17 0 26 -31 25 -85 -1 -53 -11 -78 -35 -80 -17 -1 -19 5 -17 54 l1 56 -10
-52 c-6 -29 -15 -53 -19 -53 -12 0 -11 47 1 92 9 32 8 40 -10 58 l-20 20 5
-48 c7 -62 -6 -107 -30 -107 -11 0 -25 10 -31 23 -9 18 -13 20 -17 8 -6 -16
-66 -51 -74 -43 -2 3 5 8 16 12 19 6 19 8 6 21 -10 11 -14 38 -13 102 0 106 9
135 41 130 23 -3 23 -5 26 -146 1 -20 5 -31 11 -27 6 3 13 -1 16 -9 8 -21 23
-11 19 12 -2 9 -4 26 -4 36 -1 20 -1 20 -16 0 -13 -17 -14 -11 -15 62 0 81 0
82 27 89 17 4 29 2 31 -5 3 -7 9 -5 16 6 19 26 36 8 37 -39 l1 -42 9 40 c5 22
12 47 16 55 12 29 15 -18 4 -71z m249 -33 c0 -36 -12 -46 -59 -46 -26 0 -28 3
-26 38 1 20 3 38 4 40 0 1 19 2 41 2 39 0 40 -1 40 -34z m-2 -165 l3 -41 -43
19 c-36 15 -43 23 -44 47 -1 41 2 43 43 29 35 -12 38 -17 41 -54z m-35 -96
c33 -29 38 -38 35 -70 l-3 -38 -42 34 c-36 29 -42 40 -42 72 -1 20 2 37 7 37
4 -1 24 -16 45 -35z m-13 -137 c25 -37 35 -63 35 -91 l0 -38 -32 38 c-18 21
-38 38 -44 38 -10 0 -15 60 -10 100 2 15 20 -1 51 -47z m-3214 -3 c0 -19 0
-35 -1 -35 -1 0 -10 8 -19 19 -16 17 -16 20 -1 35 9 9 17 16 18 16 1 0 2 -16
3 -35z m2771 -12 c-3 -10 -5 -2 -5 17 0 19 2 27 5 18 2 -10 2 -26 0 -35z
m-1024 -29 c10 -13 23 -22 28 -18 5 3 8 -8 7 -25 -1 -16 -6 -27 -10 -25 -4 3
-8 -1 -8 -8 0 -10 -2 -10 -9 1 -7 11 -18 8 -53 -20 l-43 -33 42 46 c45 50 45
51 13 121 -9 20 -9 20 2 3 7 -10 21 -29 31 -42z m1384 4 c-3 -8 -6 -5 -6 6 -1
11 2 17 5 13 3 -3 4 -12 1 -19z m45 -46 c-4 -11 -1 -13 8 -7 8 5 11 4 6 -3 -4
-6 5 -34 19 -61 24 -48 34 -111 18 -111 -5 0 -25 31 -45 69 -29 52 -37 76 -32
98 3 16 12 30 19 30 8 0 11 -7 7 -15z m-1600 -168 c-45 -42 -80 -79 -77 -83 2
-5 -6 -17 -18 -28 -12 -11 -28 -29 -34 -39 -11 -16 -11 -15 -3 9 16 44 13 47
-42 48 -29 1 -42 3 -28 6 99 15 90 7 91 76 l1 62 10 -52 c10 -56 17 -63 39
-36 19 22 128 113 137 113 4 0 -30 -34 -76 -76z m1544 32 c-1 -37 -9 -36 -21
3 -5 16 -4 21 4 17 6 -4 11 -2 11 3 0 6 1 11 3 11 2 0 3 -15 3 -34z m-2168
-119 c6 2 9 -4 6 -12 -5 -11 2 -15 27 -16 27 -1 29 -3 10 -6 l-25 -5 25 -19
24 -19 -27 10 c-33 11 -33 9 -12 -33 l15 -32 -26 33 c-29 35 -46 40 -65 17 -7
-8 -17 -15 -23 -15 -5 0 -3 8 6 18 26 29 21 32 -40 28 l-58 -5 63 10 c55 10
63 14 59 30 -3 10 -1 17 4 13 5 -3 10 10 10 28 l1 33 7 -30 c4 -16 12 -29 19
-28z m2289 -159 c-3 -8 -6 -5 -6 6 -1 11 2 17 5 13 3 -3 4 -12 1 -19z m-2920
-100 c-3 -8 -6 -5 -6 6 -1 11 2 17 5 13 3 -3 4 -12 1 -19z m3133 -235 c0 -7
-4 -13 -10 -13 -5 0 -10 12 -10 28 0 21 2 24 10 12 5 -8 10 -21 10 -27z
m-3171 -163 c4 0 13 6 21 13 8 6 6 2 -3 -10 -17 -20 -17 -22 -1 -31 14 -8 11
-10 -18 -13 l-34 -5 10 40 c6 22 12 32 14 23 2 -9 7 -17 11 -17z m1026 20 c4
-6 11 -7 17 -4 7 4 8 2 4 -4 -4 -7 0 -12 11 -13 17 -1 17 -2 1 -6 -15 -4 -16
-8 -6 -26 10 -20 10 -21 -5 -8 -10 7 -17 10 -17 5 0 -5 -4 -3 -8 4 -7 10 -15
7 -38 -10 -26 -19 -27 -20 -11 -2 23 27 22 34 -5 35 -21 1 -20 2 5 11 15 5 27
14 27 19 0 12 17 11 25 -1z m-258 -278 c-22 -24 -22 -42 1 -43 15 -1 16 -2 0
-6 -10 -2 -15 -10 -11 -19 4 -10 0 -12 -11 -8 -11 4 -16 0 -17 -12 -1 -18 -2
-18 -6 -1 -3 12 -10 16 -20 13 -11 -4 -13 -2 -9 9 3 9 0 15 -10 15 -14 0 -14
2 0 15 8 8 23 15 34 15 10 0 27 9 37 20 10 11 20 20 23 20 3 0 -2 -8 -11 -18z
m1302 -2 c39 -10 291 -74 381 -96 30 -7 105 -26 165 -43 61 -16 146 -39 190
-50 44 -12 89 -25 100 -30 11 -5 45 -14 75 -20 49 -10 187 -60 167 -61 -4 0
-58 13 -120 29 -61 17 -168 44 -237 61 -69 17 -145 37 -170 45 -25 7 -108 30
-185 50 -77 20 -160 43 -185 50 -25 7 -83 23 -130 35 -47 13 -89 27 -94 32
-13 11 -2 10 43 -2z m-849 -1154 c0 -8 8 -17 18 -19 11 -3 7 -5 -10 -6 -14 0
-35 -4 -45 -7 -17 -5 -17 -5 0 9 9 8 17 19 17 26 0 6 5 11 10 11 6 0 10 -6 10
-14z m64 -61 c36 -33 34 -63 -6 -80 -18 -8 -27 -14 -20 -15 7 0 22 5 33 10 21
12 22 10 13 -15 -8 -20 -56 -45 -87 -45 -28 0 -80 37 -72 51 4 5 1 9 -4 9 -6
0 -11 9 -11 19 0 11 -4 21 -9 23 -4 2 -12 14 -16 27 -6 19 -4 23 8 18 8 -3 20
0 26 6 8 8 11 8 11 0 0 -7 -4 -15 -10 -18 -5 -3 -10 -10 -10 -15 0 -5 13 5 29
21 38 38 87 39 125 4z m42 -1 c-1 -30 -6 -30 -28 0 -17 23 -16 24 6 24 19 0
23 -6 22 -24z m134 11 c0 -8 -7 -15 -15 -15 -8 0 -15 -4 -15 -10 0 -5 7 -10
15 -10 8 0 15 -7 15 -15 0 -8 -7 -15 -15 -15 -11 0 -15 -11 -15 -40 0 -29 -4
-40 -15 -40 -11 0 -15 11 -15 40 0 22 -4 40 -10 40 -5 0 -10 7 -10 15 0 8 5
15 10 15 6 0 10 8 10 18 0 25 9 32 37 32 14 0 23 -6 23 -15z m465 -5 c0 -22
-29 -18 -33 3 -3 14 1 18 15 15 10 -2 18 -10 18 -18z m45 -22 c0 -39 1 -40 18
-25 10 10 27 17 37 17 17 0 16 -3 -5 -25 l-23 -25 21 -23 c12 -13 22 -26 22
-30 0 -14 -41 -7 -46 8 -4 8 -10 15 -15 15 -5 0 -9 -7 -9 -15 0 -8 -7 -15 -15
-15 -12 0 -15 16 -15 80 0 64 3 80 15 80 11 0 15 -11 15 -42z m-1930 -41 l0
-74 -37 -1 c-46 -2 -63 12 -63 53 0 39 21 59 55 53 21 -4 25 -1 25 18 0 13 5
24 10 24 6 0 10 -31 10 -73z m254 52 c-3 -5 -10 -7 -15 -3 -5 3 -7 10 -3 15 3
5 10 7 15 3 5 -3 7 -10 3 -15z m466 -51 l0 -73 -34 -2 c-21 -2 -41 3 -50 13
-35 35 -6 100 41 91 19 -3 23 0 23 19 0 13 5 24 10 24 6 0 10 -31 10 -72z
m100 49 c0 -20 4 -23 30 -19 24 3 32 0 42 -22 8 -19 9 -35 2 -54 -8 -23 -15
-27 -52 -28 l-42 -2 0 74 c0 43 4 74 10 74 6 0 10 -10 10 -23z m-712 -29 c7
-7 12 -20 12 -30 0 -14 -8 -18 -41 -18 -28 0 -39 -4 -36 -12 2 -7 18 -13 35
-13 39 0 37 -19 -2 -23 -36 -5 -56 14 -56 52 0 39 15 56 50 56 14 0 31 -5 38
-12z m99 -4 c2 -7 -9 -9 -29 -7 -31 4 -32 3 -14 -11 11 -9 25 -16 32 -16 18 0
26 -30 13 -47 -14 -16 -71 -14 -76 4 -3 8 6 10 31 6 41 -6 51 13 11 23 -36 9
-51 30 -35 50 14 16 61 16 67 -2z m48 -40 c-1 -66 -19 -63 -23 5 -2 40 0 52
10 49 8 -3 13 -22 13 -54z m115 -10 c0 -41 -5 -65 -14 -73 -17 -14 -68 -11
-73 5 -2 6 10 8 32 6 26 -3 35 0 35 11 0 10 -6 13 -20 10 -26 -7 -60 23 -60
53 0 34 26 54 66 51 l34 -2 0 -61z m112 53 c11 -17 10 -97 -1 -97 -6 0 -11 19
-13 43 -2 35 -7 43 -25 45 -21 3 -23 -1 -23 -42 0 -25 -4 -46 -10 -46 -5 0
-10 24 -10 53 l0 54 37 1 c20 1 41 -4 45 -11z m118 -6 c17 -33 11 -41 -31 -41
-28 0 -39 -4 -36 -12 2 -7 18 -13 35 -13 18 0 31 -4 29 -10 -5 -15 -56 -18
-73 -4 -17 14 -19 70 -2 87 19 19 66 15 78 -7z m339 -23 l17 -42 17 42 c9 23
22 42 28 42 12 0 13 2 -26 -87 -20 -45 -33 -63 -46 -63 -11 0 -19 5 -19 10 0
6 7 10 16 10 19 0 16 35 -10 93 -10 22 -12 37 -6 37 6 0 19 -19 29 -42z m561
32 c0 -5 -9 -14 -20 -20 -14 -8 -20 -21 -20 -45 0 -24 -5 -35 -15 -35 -12 0
-15 13 -15 55 l0 55 35 0 c19 0 35 -4 35 -10z m96 -17 l11 -23 11 25 c14 31
61 34 87 5 24 -27 13 -50 -27 -51 l-33 -1 30 -7 c33 -7 40 -24 12 -29 -30 -6
-65 7 -71 26 -5 14 -14 17 -48 13 -43 -5 -43 -5 -10 -10 18 -4 34 -10 35 -16
3 -15 -62 -18 -79 -4 -17 14 -19 70 -2 87 20 20 71 10 84 -15z m234 8 c24 -45
1 -91 -46 -91 -17 0 -24 -5 -24 -20 0 -11 -7 -20 -15 -20 -12 0 -15 15 -15 75
l0 75 45 0 c34 0 47 -5 55 -19z m50 -36 c0 -42 -3 -55 -15 -55 -12 0 -15 13
-15 55 0 42 3 55 15 55 12 0 15 -13 15 -55z"/>
<path d="M5026 3054 c-18 -26 -18 -26 3 -15 11 7 21 18 21 26 0 20 -2 19 -24
-11z"/>
<path d="M4964 3006 c-18 -17 -40 -36 -50 -42 -16 -10 -17 -14 -6 -25 11 -12
12 -11 7 6 -5 15 -4 16 3 6 5 -7 6 -25 2 -40 -4 -14 -4 -65 0 -112 5 -67 12
-93 28 -114 l22 -28 -1 109 c-1 60 4 122 10 137 14 35 14 40 0 31 -7 -4 -7 1
1 15 9 17 9 26 -1 37 -6 8 -9 18 -5 21 4 4 11 2 15 -6 7 -10 9 -10 14 2 12 32
-9 34 -39 3z"/>
<path d="M5017 2883 c-4 -3 -7 -16 -6 -27 0 -19 1 -19 10 3 10 24 8 36 -4 24z"/>
<path d="M4980 2870 c0 -5 5 -10 10 -10 6 0 10 5 10 10 0 6 -4 10 -10 10 -5 0
-10 -4 -10 -10z"/>
<path d="M5090 2865 c-1 -5 -2 -14 -1 -18 1 -4 -5 -15 -14 -23 -17 -17 -19
-30 -6 -38 12 -8 34 48 28 71 -3 10 -6 14 -7 8z"/>
<path d="M5210 2671 c0 -6 5 -13 10 -16 6 -3 10 1 10 9 0 9 -4 16 -10 16 -5 0
-10 -4 -10 -9z"/>
<path d="M5575 2639 c-4 -6 -5 -12 -2 -15 2 -3 7 2 10 11 7 17 1 20 -8 4z"/>
<path d="M5380 2564 c0 -21 4 -45 9 -53 5 -8 7 5 4 35 -7 61 -13 70 -13 18z"/>
<path d="M5540 2561 c0 -10 7 -24 15 -31 13 -11 13 -8 4 19 -12 35 -19 40 -19
12z"/>
<path d="M5070 2470 c0 -16 2 -30 4 -30 2 0 6 14 8 30 3 17 1 30 -4 30 -4 0
-8 -13 -8 -30z"/>
<path d="M5513 2480 c4 -14 7 -35 7 -47 0 -13 4 -23 9 -23 9 0 -5 80 -16 90
-3 3 -3 -6 0 -20z"/>
<path d="M5131 2454 c0 -11 3 -14 6 -6 3 7 2 16 -1 19 -3 4 -6 -2 -5 -13z"/>
<path d="M5581 2440 c0 -8 4 -24 9 -35 5 -13 9 -14 9 -5 0 8 -4 24 -9 35 -5
13 -9 14 -9 5z"/>
<path d="M5125 2400 c-4 -17 -5 -34 -2 -36 3 -3 8 9 12 26 4 17 5 34 2 36 -3
3 -8 -9 -12 -26z"/>
<path d="M5070 2410 c0 -5 5 -10 10 -10 6 0 10 5 10 10 0 6 -4 10 -10 10 -5 0
-10 -4 -10 -10z"/>
<path d="M5372 2395 c0 -16 2 -22 5 -12 2 9 2 23 0 30 -3 6 -5 -1 -5 -18z"/>
<path d="M5060 2375 c0 -8 4 -15 10 -15 5 0 7 7 4 15 -4 8 -8 15 -10 15 -2 0
-4 -7 -4 -15z"/>
<path d="M5211 2374 c0 -11 3 -14 6 -6 3 7 2 16 -1 19 -3 4 -6 -2 -5 -13z"/>
<path d="M5582 2360 c0 -14 2 -19 5 -12 2 6 2 18 0 25 -3 6 -5 1 -5 -13z"/>
<path d="M5101 2334 c0 -11 3 -14 6 -6 3 7 2 16 -1 19 -3 4 -6 -2 -5 -13z"/>
<path d="M5541 2328 c0 -7 4 -22 9 -33 8 -18 9 -17 9 7 1 15 -3 30 -9 33 -5 3
-10 0 -9 -7z"/>
<path d="M5151 2313 c-1 -12 4 -25 9 -28 12 -7 12 2 0 30 -8 19 -9 19 -9 -2z"/>
<path d="M5382 2310 c0 -14 2 -19 5 -12 2 6 2 18 0 25 -3 6 -5 1 -5 -13z"/>
<path d="M5426 2225 c2 -55 4 -119 4 -142 -1 -29 3 -43 12 -43 9 0 9 -3 -2
-10 -12 -7 -12 -12 -2 -22 6 -6 12 -28 12 -47 0 -32 1 -33 14 -16 12 17 14 13
21 -43 4 -34 4 -78 1 -99 -3 -21 -2 -54 3 -73 6 -25 9 16 10 137 1 105 -3 174
-9 178 -5 3 -11 23 -11 43 -2 29 -3 31 -6 10 -2 -14 -10 -31 -16 -36 -9 -8
-13 9 -15 66 -2 43 -7 104 -12 137 -8 51 -8 45 -4 -40z"/>
<path d="M5352 2255 c0 -16 2 -22 5 -12 2 9 2 23 0 30 -3 6 -5 -1 -5 -18z"/>
<path d="M5382 2260 c0 -14 2 -19 5 -12 2 6 2 18 0 25 -3 6 -5 1 -5 -13z"/>
<path d="M5151 2244 c0 -11 3 -14 6 -6 3 7 2 16 -1 19 -3 4 -6 -2 -5 -13z"/>
<path d="M5141 2194 c0 -11 3 -14 6 -6 3 7 2 16 -1 19 -3 4 -6 -2 -5 -13z"/>
<path d="M5271 2174 c0 -11 3 -14 6 -6 3 7 2 16 -1 19 -3 4 -6 -2 -5 -13z"/>
<path d="M5495 2070 c3 -5 8 -10 11 -10 2 0 4 5 4 10 0 6 -5 10 -11 10 -5 0
-7 -4 -4 -10z"/>
<path d="M5450 1827 c0 -31 4 -57 10 -57 5 0 7 22 3 53 -8 71 -13 72 -13 4z"/>
<path d="M5631 1594 c0 -11 3 -14 6 -6 3 7 2 16 -1 19 -3 4 -6 -2 -5 -13z"/>
<path d="M5330 3391 c0 -10 7 -21 15 -25 11 -4 15 1 15 19 0 16 -6 25 -15 25
-8 0 -15 -9 -15 -19z"/>
<path d="M5252 3375 c0 -16 2 -22 5 -12 2 9 2 23 0 30 -3 6 -5 -1 -5 -18z"/>
<path d="M5252 3270 c0 -14 2 -19 5 -12 2 6 2 18 0 25 -3 6 -5 1 -5 -13z"/>
<path d="M3887 473 c-15 -14 -7 -43 12 -43 26 0 36 17 21 35 -14 16 -23 19
-33 8z"/>
<path d="M3960 470 c-12 -7 -12 -12 -2 -22 9 -9 15 -9 24 0 16 16 -2 34 -22
22z"/>
<path d="M3888 393 c12 -2 32 -2 45 0 12 2 2 4 -23 4 -25 0 -35 -2 -22 -4z"/>
<path d="M2674 436 c-11 -29 0 -51 26 -51 21 0 25 5 25 30 0 24 -5 31 -23 33
-13 2 -24 -3 -28 -12z"/>
<path d="M3395 431 c-9 -28 5 -51 31 -51 21 0 24 5 24 35 0 30 -3 35 -24 35
-15 0 -27 -7 -31 -19z"/>
<path d="M3570 415 c0 -31 3 -35 25 -35 18 0 26 7 31 24 8 32 -2 46 -32 46
-21 0 -24 -5 -24 -35z"/>
<path d="M2797 444 c-15 -15 -6 -24 24 -24 20 0 29 4 27 13 -5 14 -40 21 -51
11z"/>
<path d="M3045 431 c-9 -28 5 -51 31 -51 21 0 24 5 24 35 0 30 -3 35 -24 35
-15 0 -27 -7 -31 -19z"/>
<path d="M3287 444 c-15 -15 -6 -24 24 -24 20 0 29 4 27 13 -5 14 -40 21 -51
11z"/>
<path d="M4288 433 c6 -2 18 -2 25 0 6 3 1 5 -13 5 -14 0 -19 -2 -12 -5z"/>
<path d="M4408 433 c7 -3 16 -2 19 1 4 3 -2 6 -13 5 -11 0 -14 -3 -6 -6z"/>
<path d="M4512 418 c4 -30 43 -33 43 -3 0 13 -8 21 -23 23 -20 3 -23 0 -20
-20z"/>
</g>
</svg>
